<svg width="115" height="111" viewBox="0 0 115 111" fill="none" xmlns="http://www.w3.org/2000/svg">
<path fill-rule="evenodd" clip-rule="evenodd" d="M62.3382 2.79856C59.6168 0.132517 55.263 0.132339 52.5414 2.79815L2.8695 51.4514C-0.523946 54.7752 0.308084 60.4418 4.51378 62.6499L6.31153 63.5937C9.08035 65.0474 12.4775 64.4882 14.6343 62.2237L52.0141 22.9769C54.7565 20.0975 59.3438 20.078 62.1106 22.934L100.246 62.2983C102.406 64.5285 105.778 65.0688 108.527 63.6254L110.367 62.6595C114.572 60.4515 115.405 54.7854 112.012 51.4614L62.3382 2.79856ZM14.26 70.529C14.26 68.6728 14.9973 66.8926 16.3097 65.5798L52.5422 29.3389C55.2789 26.6016 59.7177 26.6049 62.4503 29.3464L98.5678 65.5811C99.8756 66.8932 100.61 68.6703 100.61 70.5228V103.06C100.61 106.926 97.476 110.06 93.61 110.06H76.12C72.254 110.06 69.12 106.926 69.12 103.06V87.09C69.12 83.224 65.986 80.09 62.12 80.09H52.49C48.624 80.09 45.49 83.224 45.49 87.09V103.06C45.49 106.926 42.356 110.06 38.49 110.06H21.26C17.394 110.06 14.26 106.926 14.26 103.06V70.529Z" fill="black"/>
</svg>
