<svg width="13" height="13" viewBox="0 0 13 13" fill="none" xmlns="http://www.w3.org/2000/svg">
<path d="M5.75309 3.84985L3.90381 2.16032C3.59912 1.88314 3.58008 1.4113 3.85726 1.10767C4.13444 0.802979 4.60628 0.783936 4.90991 1.06112L5.75203 1.82918V0.749023C5.75203 0.335368 6.0874 0 6.50106 0C6.91471 0 7.25008 0.335368 7.25008 0.749023V1.90007L8.24137 0.994466C8.54606 0.717285 9.0179 0.737386 9.29403 1.04102C9.57121 1.3457 9.55111 1.81755 9.24748 2.09367L7.25114 3.91968V5.74886H9.06869L10.8471 3.80225C11.1243 3.49756 11.5961 3.47852 11.8997 3.7557C12.2044 4.03288 12.2235 4.50472 11.9463 4.80835L11.0883 5.74886H12.251C12.6646 5.74886 13 6.08423 13 6.49788C13 6.91154 12.6646 7.24691 12.251 7.24691H11.1941L12.0129 8.13981C12.2901 8.4445 12.27 8.91634 11.9664 9.19246C11.6617 9.46965 11.1899 9.44954 10.9137 9.14591L9.17342 7.24691H7.25008V9.10783L9.24748 10.9328C9.55217 11.21 9.57121 11.6818 9.29403 11.9854C9.01685 12.2901 8.545 12.3092 8.24137 12.032L7.25114 11.1274V12.251C7.25114 12.6646 6.91577 13 6.50212 13C6.08846 13 5.75309 12.6646 5.75309 12.251V11.1983L4.91097 11.9664C4.60628 12.2436 4.13444 12.2235 3.85832 11.9198C3.58114 11.6152 3.60124 11.1433 3.90487 10.8672L5.75415 9.17871V7.24691H3.90381L2.16455 9.14591C1.88737 9.4506 1.41553 9.46965 1.1119 9.19246C0.808268 8.91528 0.788167 8.44344 1.06535 8.13981L1.8842 7.24691H0.749023C0.335368 7.24691 0 6.91154 0 6.49788C0 6.08423 0.335368 5.74886 0.749023 5.74886H1.98893L1.13094 4.80835C0.85376 4.50366 0.873861 4.03182 1.17749 3.7557C1.48218 3.47852 1.95402 3.49862 2.23014 3.80225L4.00854 5.74886H5.75203V3.84985H5.75309Z" fill="black"/>
</svg>
