<svg width="184" height="54" viewBox="0 0 184 54" fill="none" xmlns="http://www.w3.org/2000/svg">
<g filter="url(#filter0_d_154_67)">
<mask id="path-1-outside-1_154_67" maskUnits="userSpaceOnUse" x="1.4834" y="1.48633" width="175" height="45" fill="black">
<rect fill="white" x="1.4834" y="1.48633" width="175" height="45"/>
<path fill-rule="evenodd" clip-rule="evenodd" d="M26.1973 14.269L26.1895 14.3196L26.1802 14.3182C25.9401 16.1824 25.738 17.6087 25.5426 18.843H25.548L25.4767 19.2535C25.3656 19.9363 25.2556 20.5655 25.1408 21.1868L21.6565 41.2385H31.3254L30.9933 43.0149H21.3478H20.8166H19.4553L23.4217 20.278C23.5886 19.1557 23.7966 17.9672 24.0029 16.7886C24.1908 15.7149 24.3773 14.6494 24.5299 13.6497L24.5359 13.6106L19.4861 9.15682L23.9929 14.462C22.7822 15.0037 21.4106 15.0889 20.1365 14.7017C18.8534 14.3172 17.6838 13.6293 16.7295 12.6982C15.7752 11.767 15.0652 10.6208 14.6613 9.35933C14.5001 8.86563 14.3865 8.35818 14.3221 7.84377C14.313 7.77407 14.3007 7.68594 14.2864 7.58381C14.1715 6.76049 13.9296 5.02684 14.2007 4.69765C14.6416 4.15543 17.7551 4.80955 18.4643 4.96488C22.1506 5.77702 26.2279 7.922 25.666 12.3382C25.6417 12.5208 25.5928 12.6993 25.5205 12.869L25.7282 13.0725L26 12.9493C26.016 12.6917 26.0724 12.4383 26.1672 12.1982C28.14 7.28195 33.6251 7.38263 37.9335 8.65451C38.7632 8.89647 42.3815 9.99712 42.5288 10.815C42.6193 11.32 41.3354 13.0189 40.7466 13.7979C40.6809 13.8849 40.6238 13.9603 40.5783 14.0214C40.214 14.5207 39.8019 14.9842 39.3476 15.4056C36.9716 17.568 33.7634 18.535 30.5528 17.8285C29.0063 17.5023 27.6315 16.6305 26.6871 15.3769L34.4518 12.4297L26.1973 14.269ZM47.8844 33.3798L48.7145 28.1503C48.8584 26.9993 48.875 25.8538 48.7643 24.7138C48.6647 23.5738 48.388 22.5279 47.9342 21.5761C47.4805 20.6243 46.8219 19.8551 45.9587 19.2685C45.0954 18.6819 43.9886 18.372 42.6383 18.3388C41.2217 18.3056 39.9821 18.5602 38.9196 19.1025C37.8682 19.6448 36.9717 20.3919 36.2301 21.3437C35.4997 22.2844 34.9075 23.3469 34.4538 24.5312C34.0111 25.7154 33.6956 26.9163 33.5075 28.1337L32.6774 33.3798C32.5335 34.5198 32.5169 35.6598 32.6276 36.7997C32.7383 37.9397 33.0205 38.9912 33.4743 39.954C33.9281 40.9059 34.5811 41.6751 35.4333 42.2617C36.2965 42.8483 37.3978 43.1581 38.737 43.1913C40.1758 43.2246 41.4264 42.97 42.4889 42.4277C43.5514 41.8854 44.4479 41.1438 45.1784 40.2031C45.9088 39.2623 46.4954 38.1998 46.9381 37.0156C47.3809 35.8313 47.6963 34.6194 47.8844 33.3798ZM46.8385 28.0673L46.0085 33.3798C45.8646 34.3759 45.6266 35.3554 45.2946 36.3183C44.9736 37.2701 44.5309 38.1389 43.9665 38.9247C43.402 39.6995 42.7047 40.3137 41.8747 40.7675C41.0446 41.2102 40.0485 41.415 38.8864 41.3818C37.8128 41.3486 36.9551 41.0774 36.3131 40.5683C35.6823 40.0592 35.223 39.4117 34.9352 38.6259C34.6585 37.829 34.498 36.9768 34.4538 36.0693C34.4206 35.1507 34.4593 34.2652 34.57 33.413L35.4001 28.1171C35.5439 27.1321 35.7819 26.1637 36.1139 25.2119C36.446 24.249 36.8942 23.3802 37.4587 22.6054C38.0231 21.8307 38.7204 21.2219 39.5504 20.7792C40.3805 20.3255 41.3711 20.1152 42.5221 20.1484C43.6068 20.1816 44.4645 20.4472 45.0954 20.9453C45.7373 21.4433 46.1966 22.0852 46.4733 22.871C46.7611 23.6458 46.9215 24.4925 46.9547 25.4111C46.9879 26.3297 46.9492 27.2151 46.8385 28.0673ZM65.7917 28.1503L64.9616 33.3798C64.7734 34.6194 64.458 35.8313 64.0153 37.0156C63.5726 38.1998 62.986 39.2623 62.2555 40.2031C61.5251 41.1438 60.6286 41.8854 59.5661 42.4277C58.5036 42.97 57.2529 43.2246 55.8141 43.1913C54.4749 43.1581 53.3737 42.8483 52.5104 42.2617C51.6582 41.6751 51.0052 40.9059 50.5514 39.954C50.0977 38.9912 49.8154 37.9397 49.7048 36.7997C49.5941 35.6598 49.6107 34.5198 49.7546 33.3798L50.5846 28.1337C50.7728 26.9163 51.0882 25.7154 51.5309 24.5312C51.9847 23.3469 52.5768 22.2844 53.3073 21.3437C54.0488 20.3919 54.9453 19.6448 55.9967 19.1025C57.0592 18.5602 58.2988 18.3056 59.7155 18.3388C61.0658 18.372 62.1725 18.6819 63.0358 19.2685C63.8991 19.8551 64.5576 20.6243 65.0114 21.5761C65.4652 22.5279 65.7419 23.5738 65.8415 24.7138C65.9521 25.8538 65.9355 26.9993 65.7917 28.1503ZM63.0856 33.3798L63.9157 28.0673C64.0264 27.2151 64.0651 26.3297 64.0319 25.4111C63.9987 24.4925 63.8382 23.6458 63.5505 22.871C63.2738 22.0852 62.8144 21.4433 62.1725 20.9453C61.5417 20.4472 60.6839 20.1816 59.5993 20.1484C58.4482 20.1152 57.4577 20.3255 56.6276 20.7792C55.7975 21.2219 55.1003 21.8307 54.5358 22.6054C53.9714 23.3802 53.5231 24.249 53.1911 25.2119C52.859 26.1637 52.6211 27.1321 52.4772 28.1171L51.6471 33.413C51.5365 34.2652 51.4977 35.1507 51.5309 36.0693C51.5752 36.9768 51.7357 37.829 52.0124 38.6259C52.3001 39.4117 52.7594 40.0592 53.3903 40.5683C54.0322 41.0774 54.89 41.3486 55.9635 41.3818C57.1256 41.415 58.1217 41.2102 58.9518 40.7675C59.7819 40.3137 60.4792 39.6995 61.0436 38.9247C61.6081 38.1389 62.0508 37.2701 62.3717 36.3183C62.7038 35.3554 62.9417 34.3759 63.0856 33.3798ZM71.6294 18.6709H72.3931L75.8296 39.8545L86.604 18.6709H87.4507H88.5464H89.1108L84.9106 42.8428H83.0347L84.8774 32.251L86.8104 22.0501L76.1284 42.8428H74.6675L71.1342 21.8452L69.4878 32.4004L67.6616 42.8428H65.7856L70.0024 18.6709H70.6001H71.6294ZM17.3828 31.3047C16.9805 30.8521 16.4703 30.5201 15.8523 30.3087C16.3651 30.1337 16.8421 29.9012 17.2832 29.6113C18.0579 29.0911 18.6777 28.4271 19.1426 27.6191C19.6185 26.8112 19.9062 25.8981 20.0059 24.8799C20.0723 23.9281 20.0003 23.0758 19.79 22.3232C19.5908 21.5596 19.2533 20.9121 18.7773 20.3809C18.3125 19.8496 17.7148 19.4401 16.9844 19.1523C16.265 18.8646 15.4349 18.7096 14.4941 18.6875L8.68359 18.6709L4.4834 42.8428H5.18066H6.35938H11.3398C12.7454 42.8538 13.9795 42.5661 15.042 41.9795C16.1156 41.3929 16.9678 40.5739 17.5986 39.5225C18.2295 38.471 18.6058 37.2591 18.7275 35.8867C18.7939 35.0456 18.722 34.221 18.5117 33.4131C18.3014 32.5941 17.9251 31.8913 17.3828 31.3047ZM15.4072 28.9307C14.7349 29.2668 13.9742 29.4529 13.1251 29.4887L10.1611 29.4785L10.1597 29.4856L8.68715 29.4804L10.2607 20.4473L14.4277 20.4639C15.3464 20.4971 16.0879 20.6852 16.6523 21.0283C17.2279 21.3714 17.6318 21.8639 17.8643 22.5059C18.1077 23.1367 18.1852 23.8949 18.0967 24.7803C18.0081 25.7653 17.7259 26.612 17.25 27.3203C16.7852 28.0176 16.1709 28.5544 15.4072 28.9307ZM11.4229 41.083L6.66872 41.067L8.38381 31.2217H9.8125L13.4814 31.2383C14.3669 31.2826 15.0697 31.5205 15.5898 31.9521C16.1211 32.3838 16.4863 32.9538 16.6855 33.6621C16.8848 34.3594 16.9456 35.1064 16.8682 35.9033C16.7575 36.9105 16.4642 37.8014 15.9883 38.5762C15.5234 39.3509 14.9036 39.9652 14.1289 40.4189C13.3542 40.8617 12.4521 41.083 11.4229 41.083ZM162.651 29.4951L160.99 18.6709H156.01L159.596 33.8281L158.019 42.8428H162.833L164.294 34.293L173.425 18.6709H168.079L162.651 29.4951ZM143.889 42.8428H142.262H139.489H137.514L141.697 18.6709H143.606H146.445L146.443 18.6825L147.657 18.6875C149.107 18.7207 150.341 19.0195 151.359 19.584C152.378 20.1484 153.191 20.9066 153.8 21.8584C154.42 22.8102 154.835 23.8893 155.045 25.0957C155.255 26.3021 155.277 27.5693 155.111 28.8975L154.563 32.6494C154.331 34.0771 153.938 35.4108 153.385 36.6504C152.831 37.89 152.106 38.9746 151.21 39.9043C150.325 40.834 149.273 41.5589 148.056 42.0791C146.838 42.5993 145.449 42.8538 143.889 42.8428ZM144.121 38.8584L142.953 38.8485L145.745 22.7155L147.441 22.7217C148.338 22.7549 149.013 22.9596 149.467 23.3359C149.932 23.7012 150.242 24.1826 150.396 24.7803C150.551 25.3779 150.612 26.0309 150.579 26.7393C150.546 27.4476 150.485 28.1504 150.396 28.8477L149.849 32.6328C149.683 33.8171 149.4 34.8796 149.002 35.8203C148.615 36.75 148.034 37.4915 147.259 38.0449C146.484 38.5983 145.438 38.8695 144.121 38.8584ZM125.675 42.8428H127.302C128.862 42.8538 130.251 42.5993 131.469 42.0791C132.686 41.5589 133.738 40.834 134.623 39.9043C135.52 38.9746 136.244 37.89 136.798 36.6504C137.351 35.4108 137.744 34.0771 137.977 32.6494L138.524 28.8975C138.69 27.5693 138.668 26.3021 138.458 25.0957C138.248 23.8893 137.833 22.8102 137.213 21.8584C136.604 20.9066 135.791 20.1484 134.772 19.584C133.754 19.0195 132.52 18.7207 131.07 18.6875L129.856 18.6825L129.858 18.6709H127.02H125.11L120.927 42.8428H122.902H125.675ZM126.366 38.8485L127.534 38.8584C128.851 38.8695 129.897 38.5983 130.672 38.0449C131.447 37.4915 132.028 36.75 132.415 35.8203C132.813 34.8796 133.096 33.8171 133.262 32.6328L133.81 28.8477C133.898 28.1504 133.959 27.4476 133.992 26.7393C134.025 26.0309 133.965 25.3779 133.81 24.7803C133.655 24.1826 133.345 23.7012 132.88 23.3359C132.426 22.9596 131.751 22.7549 130.854 22.7217L129.158 22.7155L126.366 38.8485ZM118.833 18.6709H123.564L120.742 35.2559C120.51 36.8828 120.023 38.2995 119.281 39.5059C118.54 40.7012 117.549 41.6198 116.31 42.2617C115.07 42.9036 113.603 43.2135 111.91 43.1914C110.316 43.1582 108.999 42.8096 107.959 42.1455C106.919 41.4704 106.166 40.5462 105.701 39.373C105.247 38.1888 105.115 36.8219 105.303 35.2725L108.125 18.6709H112.84L110.067 35.2891C109.99 35.9642 109.979 36.5895 110.034 37.165C110.101 37.7295 110.3 38.1999 110.632 38.5762C110.975 38.9414 111.539 39.1351 112.325 39.1572C113.155 39.1904 113.825 39.041 114.334 38.709C114.843 38.377 115.225 37.9121 115.479 37.3145C115.734 36.7057 115.922 36.0306 116.044 35.2891L118.833 18.6709ZM101.38 30.5463C101.644 30.4531 101.899 30.3462 102.146 30.2256C103.087 29.7607 103.84 29.1077 104.404 28.2666C104.98 27.4144 105.312 26.3851 105.4 25.1787C105.467 24.0941 105.351 23.1533 105.052 22.3564C104.764 21.5596 104.321 20.89 103.724 20.3477C103.126 19.8053 102.407 19.4014 101.565 19.1357C100.735 18.859 99.8112 18.7096 98.793 18.6875L91.8037 18.6709L87.6201 42.8428H89.3135H92.3682H95.6221C97.1605 42.8649 98.5329 42.5993 99.7393 42.0459C100.946 41.4814 101.909 40.6624 102.628 39.5889C103.358 38.5042 103.773 37.1761 103.873 35.6045C103.951 34.5863 103.845 33.6787 103.558 32.8818C103.27 32.085 102.794 31.4486 102.13 30.9727C101.904 30.804 101.654 30.6618 101.38 30.5463ZM97.4379 28.7933C97.9312 28.7468 98.3718 28.6266 98.7598 28.4326C99.2578 28.1781 99.6562 27.8184 99.9551 27.3535C100.265 26.8887 100.464 26.3298 100.553 25.6768C100.63 25.1123 100.63 24.6198 100.553 24.1992C100.475 23.7676 100.282 23.4189 99.9717 23.1533C99.6618 22.8877 99.2025 22.7438 98.5938 22.7217L95.8545 22.7051L94.8021 28.7842L97.4379 28.7933ZM94.1927 32.3042L93.06 38.8469L95.8379 38.8584C96.502 38.8363 97.0664 38.6813 97.5312 38.3936C98.0072 38.1058 98.3835 37.7184 98.6602 37.2314C98.9479 36.7445 99.1305 36.1855 99.208 35.5547C99.2744 35.0788 99.291 34.6029 99.2578 34.127C99.2357 33.64 99.1029 33.2305 98.8594 32.8984C98.6159 32.5553 98.2008 32.3617 97.6143 32.3174L94.1927 32.3042Z"/>
</mask>
<path fill-rule="evenodd" clip-rule="evenodd" d="M26.1973 14.269L26.1895 14.3196L26.1802 14.3182C25.9401 16.1824 25.738 17.6087 25.5426 18.843H25.548L25.4767 19.2535C25.3656 19.9363 25.2556 20.5655 25.1408 21.1868L21.6565 41.2385H31.3254L30.9933 43.0149H21.3478H20.8166H19.4553L23.4217 20.278C23.5886 19.1557 23.7966 17.9672 24.0029 16.7886C24.1908 15.7149 24.3773 14.6494 24.5299 13.6497L24.5359 13.6106L19.4861 9.15682L23.9929 14.462C22.7822 15.0037 21.4106 15.0889 20.1365 14.7017C18.8534 14.3172 17.6838 13.6293 16.7295 12.6982C15.7752 11.767 15.0652 10.6208 14.6613 9.35933C14.5001 8.86563 14.3865 8.35818 14.3221 7.84377C14.313 7.77407 14.3007 7.68594 14.2864 7.58381C14.1715 6.76049 13.9296 5.02684 14.2007 4.69765C14.6416 4.15543 17.7551 4.80955 18.4643 4.96488C22.1506 5.77702 26.2279 7.922 25.666 12.3382C25.6417 12.5208 25.5928 12.6993 25.5205 12.869L25.7282 13.0725L26 12.9493C26.016 12.6917 26.0724 12.4383 26.1672 12.1982C28.14 7.28195 33.6251 7.38263 37.9335 8.65451C38.7632 8.89647 42.3815 9.99712 42.5288 10.815C42.6193 11.32 41.3354 13.0189 40.7466 13.7979C40.6809 13.8849 40.6238 13.9603 40.5783 14.0214C40.214 14.5207 39.8019 14.9842 39.3476 15.4056C36.9716 17.568 33.7634 18.535 30.5528 17.8285C29.0063 17.5023 27.6315 16.6305 26.6871 15.3769L34.4518 12.4297L26.1973 14.269ZM47.8844 33.3798L48.7145 28.1503C48.8584 26.9993 48.875 25.8538 48.7643 24.7138C48.6647 23.5738 48.388 22.5279 47.9342 21.5761C47.4805 20.6243 46.8219 19.8551 45.9587 19.2685C45.0954 18.6819 43.9886 18.372 42.6383 18.3388C41.2217 18.3056 39.9821 18.5602 38.9196 19.1025C37.8682 19.6448 36.9717 20.3919 36.2301 21.3437C35.4997 22.2844 34.9075 23.3469 34.4538 24.5312C34.0111 25.7154 33.6956 26.9163 33.5075 28.1337L32.6774 33.3798C32.5335 34.5198 32.5169 35.6598 32.6276 36.7997C32.7383 37.9397 33.0205 38.9912 33.4743 39.954C33.9281 40.9059 34.5811 41.6751 35.4333 42.2617C36.2965 42.8483 37.3978 43.1581 38.737 43.1913C40.1758 43.2246 41.4264 42.97 42.4889 42.4277C43.5514 41.8854 44.4479 41.1438 45.1784 40.2031C45.9088 39.2623 46.4954 38.1998 46.9381 37.0156C47.3809 35.8313 47.6963 34.6194 47.8844 33.3798ZM46.8385 28.0673L46.0085 33.3798C45.8646 34.3759 45.6266 35.3554 45.2946 36.3183C44.9736 37.2701 44.5309 38.1389 43.9665 38.9247C43.402 39.6995 42.7047 40.3137 41.8747 40.7675C41.0446 41.2102 40.0485 41.415 38.8864 41.3818C37.8128 41.3486 36.9551 41.0774 36.3131 40.5683C35.6823 40.0592 35.223 39.4117 34.9352 38.6259C34.6585 37.829 34.498 36.9768 34.4538 36.0693C34.4206 35.1507 34.4593 34.2652 34.57 33.413L35.4001 28.1171C35.5439 27.1321 35.7819 26.1637 36.1139 25.2119C36.446 24.249 36.8942 23.3802 37.4587 22.6054C38.0231 21.8307 38.7204 21.2219 39.5504 20.7792C40.3805 20.3255 41.3711 20.1152 42.5221 20.1484C43.6068 20.1816 44.4645 20.4472 45.0954 20.9453C45.7373 21.4433 46.1966 22.0852 46.4733 22.871C46.7611 23.6458 46.9215 24.4925 46.9547 25.4111C46.9879 26.3297 46.9492 27.2151 46.8385 28.0673ZM65.7917 28.1503L64.9616 33.3798C64.7734 34.6194 64.458 35.8313 64.0153 37.0156C63.5726 38.1998 62.986 39.2623 62.2555 40.2031C61.5251 41.1438 60.6286 41.8854 59.5661 42.4277C58.5036 42.97 57.2529 43.2246 55.8141 43.1913C54.4749 43.1581 53.3737 42.8483 52.5104 42.2617C51.6582 41.6751 51.0052 40.9059 50.5514 39.954C50.0977 38.9912 49.8154 37.9397 49.7048 36.7997C49.5941 35.6598 49.6107 34.5198 49.7546 33.3798L50.5846 28.1337C50.7728 26.9163 51.0882 25.7154 51.5309 24.5312C51.9847 23.3469 52.5768 22.2844 53.3073 21.3437C54.0488 20.3919 54.9453 19.6448 55.9967 19.1025C57.0592 18.5602 58.2988 18.3056 59.7155 18.3388C61.0658 18.372 62.1725 18.6819 63.0358 19.2685C63.8991 19.8551 64.5576 20.6243 65.0114 21.5761C65.4652 22.5279 65.7419 23.5738 65.8415 24.7138C65.9521 25.8538 65.9355 26.9993 65.7917 28.1503ZM63.0856 33.3798L63.9157 28.0673C64.0264 27.2151 64.0651 26.3297 64.0319 25.4111C63.9987 24.4925 63.8382 23.6458 63.5505 22.871C63.2738 22.0852 62.8144 21.4433 62.1725 20.9453C61.5417 20.4472 60.6839 20.1816 59.5993 20.1484C58.4482 20.1152 57.4577 20.3255 56.6276 20.7792C55.7975 21.2219 55.1003 21.8307 54.5358 22.6054C53.9714 23.3802 53.5231 24.249 53.1911 25.2119C52.859 26.1637 52.6211 27.1321 52.4772 28.1171L51.6471 33.413C51.5365 34.2652 51.4977 35.1507 51.5309 36.0693C51.5752 36.9768 51.7357 37.829 52.0124 38.6259C52.3001 39.4117 52.7594 40.0592 53.3903 40.5683C54.0322 41.0774 54.89 41.3486 55.9635 41.3818C57.1256 41.415 58.1217 41.2102 58.9518 40.7675C59.7819 40.3137 60.4792 39.6995 61.0436 38.9247C61.6081 38.1389 62.0508 37.2701 62.3717 36.3183C62.7038 35.3554 62.9417 34.3759 63.0856 33.3798ZM71.6294 18.6709H72.3931L75.8296 39.8545L86.604 18.6709H87.4507H88.5464H89.1108L84.9106 42.8428H83.0347L84.8774 32.251L86.8104 22.0501L76.1284 42.8428H74.6675L71.1342 21.8452L69.4878 32.4004L67.6616 42.8428H65.7856L70.0024 18.6709H70.6001H71.6294ZM17.3828 31.3047C16.9805 30.8521 16.4703 30.5201 15.8523 30.3087C16.3651 30.1337 16.8421 29.9012 17.2832 29.6113C18.0579 29.0911 18.6777 28.4271 19.1426 27.6191C19.6185 26.8112 19.9062 25.8981 20.0059 24.8799C20.0723 23.9281 20.0003 23.0758 19.79 22.3232C19.5908 21.5596 19.2533 20.9121 18.7773 20.3809C18.3125 19.8496 17.7148 19.4401 16.9844 19.1523C16.265 18.8646 15.4349 18.7096 14.4941 18.6875L8.68359 18.6709L4.4834 42.8428H5.18066H6.35938H11.3398C12.7454 42.8538 13.9795 42.5661 15.042 41.9795C16.1156 41.3929 16.9678 40.5739 17.5986 39.5225C18.2295 38.471 18.6058 37.2591 18.7275 35.8867C18.7939 35.0456 18.722 34.221 18.5117 33.4131C18.3014 32.5941 17.9251 31.8913 17.3828 31.3047ZM15.4072 28.9307C14.7349 29.2668 13.9742 29.4529 13.1251 29.4887L10.1611 29.4785L10.1597 29.4856L8.68715 29.4804L10.2607 20.4473L14.4277 20.4639C15.3464 20.4971 16.0879 20.6852 16.6523 21.0283C17.2279 21.3714 17.6318 21.8639 17.8643 22.5059C18.1077 23.1367 18.1852 23.8949 18.0967 24.7803C18.0081 25.7653 17.7259 26.612 17.25 27.3203C16.7852 28.0176 16.1709 28.5544 15.4072 28.9307ZM11.4229 41.083L6.66872 41.067L8.38381 31.2217H9.8125L13.4814 31.2383C14.3669 31.2826 15.0697 31.5205 15.5898 31.9521C16.1211 32.3838 16.4863 32.9538 16.6855 33.6621C16.8848 34.3594 16.9456 35.1064 16.8682 35.9033C16.7575 36.9105 16.4642 37.8014 15.9883 38.5762C15.5234 39.3509 14.9036 39.9652 14.1289 40.4189C13.3542 40.8617 12.4521 41.083 11.4229 41.083ZM162.651 29.4951L160.99 18.6709H156.01L159.596 33.8281L158.019 42.8428H162.833L164.294 34.293L173.425 18.6709H168.079L162.651 29.4951ZM143.889 42.8428H142.262H139.489H137.514L141.697 18.6709H143.606H146.445L146.443 18.6825L147.657 18.6875C149.107 18.7207 150.341 19.0195 151.359 19.584C152.378 20.1484 153.191 20.9066 153.8 21.8584C154.42 22.8102 154.835 23.8893 155.045 25.0957C155.255 26.3021 155.277 27.5693 155.111 28.8975L154.563 32.6494C154.331 34.0771 153.938 35.4108 153.385 36.6504C152.831 37.89 152.106 38.9746 151.21 39.9043C150.325 40.834 149.273 41.5589 148.056 42.0791C146.838 42.5993 145.449 42.8538 143.889 42.8428ZM144.121 38.8584L142.953 38.8485L145.745 22.7155L147.441 22.7217C148.338 22.7549 149.013 22.9596 149.467 23.3359C149.932 23.7012 150.242 24.1826 150.396 24.7803C150.551 25.3779 150.612 26.0309 150.579 26.7393C150.546 27.4476 150.485 28.1504 150.396 28.8477L149.849 32.6328C149.683 33.8171 149.4 34.8796 149.002 35.8203C148.615 36.75 148.034 37.4915 147.259 38.0449C146.484 38.5983 145.438 38.8695 144.121 38.8584ZM125.675 42.8428H127.302C128.862 42.8538 130.251 42.5993 131.469 42.0791C132.686 41.5589 133.738 40.834 134.623 39.9043C135.52 38.9746 136.244 37.89 136.798 36.6504C137.351 35.4108 137.744 34.0771 137.977 32.6494L138.524 28.8975C138.69 27.5693 138.668 26.3021 138.458 25.0957C138.248 23.8893 137.833 22.8102 137.213 21.8584C136.604 20.9066 135.791 20.1484 134.772 19.584C133.754 19.0195 132.52 18.7207 131.07 18.6875L129.856 18.6825L129.858 18.6709H127.02H125.11L120.927 42.8428H122.902H125.675ZM126.366 38.8485L127.534 38.8584C128.851 38.8695 129.897 38.5983 130.672 38.0449C131.447 37.4915 132.028 36.75 132.415 35.8203C132.813 34.8796 133.096 33.8171 133.262 32.6328L133.81 28.8477C133.898 28.1504 133.959 27.4476 133.992 26.7393C134.025 26.0309 133.965 25.3779 133.81 24.7803C133.655 24.1826 133.345 23.7012 132.88 23.3359C132.426 22.9596 131.751 22.7549 130.854 22.7217L129.158 22.7155L126.366 38.8485ZM118.833 18.6709H123.564L120.742 35.2559C120.51 36.8828 120.023 38.2995 119.281 39.5059C118.54 40.7012 117.549 41.6198 116.31 42.2617C115.07 42.9036 113.603 43.2135 111.91 43.1914C110.316 43.1582 108.999 42.8096 107.959 42.1455C106.919 41.4704 106.166 40.5462 105.701 39.373C105.247 38.1888 105.115 36.8219 105.303 35.2725L108.125 18.6709H112.84L110.067 35.2891C109.99 35.9642 109.979 36.5895 110.034 37.165C110.101 37.7295 110.3 38.1999 110.632 38.5762C110.975 38.9414 111.539 39.1351 112.325 39.1572C113.155 39.1904 113.825 39.041 114.334 38.709C114.843 38.377 115.225 37.9121 115.479 37.3145C115.734 36.7057 115.922 36.0306 116.044 35.2891L118.833 18.6709ZM101.38 30.5463C101.644 30.4531 101.899 30.3462 102.146 30.2256C103.087 29.7607 103.84 29.1077 104.404 28.2666C104.98 27.4144 105.312 26.3851 105.4 25.1787C105.467 24.0941 105.351 23.1533 105.052 22.3564C104.764 21.5596 104.321 20.89 103.724 20.3477C103.126 19.8053 102.407 19.4014 101.565 19.1357C100.735 18.859 99.8112 18.7096 98.793 18.6875L91.8037 18.6709L87.6201 42.8428H89.3135H92.3682H95.6221C97.1605 42.8649 98.5329 42.5993 99.7393 42.0459C100.946 41.4814 101.909 40.6624 102.628 39.5889C103.358 38.5042 103.773 37.1761 103.873 35.6045C103.951 34.5863 103.845 33.6787 103.558 32.8818C103.27 32.085 102.794 31.4486 102.13 30.9727C101.904 30.804 101.654 30.6618 101.38 30.5463ZM97.4379 28.7933C97.9312 28.7468 98.3718 28.6266 98.7598 28.4326C99.2578 28.1781 99.6562 27.8184 99.9551 27.3535C100.265 26.8887 100.464 26.3298 100.553 25.6768C100.63 25.1123 100.63 24.6198 100.553 24.1992C100.475 23.7676 100.282 23.4189 99.9717 23.1533C99.6618 22.8877 99.2025 22.7438 98.5938 22.7217L95.8545 22.7051L94.8021 28.7842L97.4379 28.7933ZM94.1927 32.3042L93.06 38.8469L95.8379 38.8584C96.502 38.8363 97.0664 38.6813 97.5312 38.3936C98.0072 38.1058 98.3835 37.7184 98.6602 37.2314C98.9479 36.7445 99.1305 36.1855 99.208 35.5547C99.2744 35.0788 99.291 34.6029 99.2578 34.127C99.2357 33.64 99.1029 33.2305 98.8594 32.8984C98.6159 32.5553 98.2008 32.3617 97.6143 32.3174L94.1927 32.3042Z" fill="white"/>
<path d="M26.1895 14.3196L25.7366 17.2852C26.5232 17.4053 27.3253 17.2081 27.9664 16.7368C28.6075 16.2655 29.0351 15.5589 29.1552 14.7723L26.1895 14.3196ZM26.1973 14.269L25.5448 11.3408C24.337 11.6099 23.4183 12.5931 23.2316 13.8163L26.1973 14.269ZM26.1802 14.3182L26.6332 11.3526C25.8346 11.2306 25.0205 11.4359 24.3752 11.9219C23.7299 12.408 23.308 13.1337 23.2048 13.935L26.1802 14.3182ZM25.5426 18.843L22.5795 18.3739C22.4423 19.2407 22.6915 20.1241 23.2614 20.7914C23.8314 21.4587 24.665 21.843 25.5426 21.843V18.843ZM25.548 18.843L28.5037 19.3566C28.6553 18.4842 28.4138 17.5894 27.8438 16.9118C27.2738 16.2342 26.4335 15.843 25.548 15.843V18.843ZM25.4767 19.2535L22.521 18.7399C22.5192 18.7505 22.5174 18.7611 22.5156 18.7717L25.4767 19.2535ZM25.1408 21.1868L22.1907 20.6417C22.1888 20.6522 22.1869 20.6627 22.1851 20.6732L25.1408 21.1868ZM21.6565 41.2385L18.7008 40.7249C18.5492 41.5973 18.7908 42.4921 19.3608 43.1697C19.9308 43.8473 20.771 44.2385 21.6565 44.2385V41.2385ZM31.3254 41.2385L34.2743 41.7897C34.4382 40.9127 34.2033 40.0083 33.6334 39.322C33.0634 38.6356 32.2175 38.2385 31.3254 38.2385V41.2385ZM30.9933 43.0149V46.0149C32.4376 46.0149 33.6769 44.9858 33.9423 43.5661L30.9933 43.0149ZM19.4553 43.0149L16.4999 42.4993C16.3477 43.372 16.5889 44.2673 17.1589 44.9453C17.7289 45.6234 18.5694 46.0149 19.4553 46.0149V43.0149ZM23.4217 20.278L26.3771 20.7936C26.3814 20.7688 26.3854 20.744 26.3891 20.7192L23.4217 20.278ZM24.0029 16.7886L21.0478 16.2713L21.0478 16.2714L24.0029 16.7886ZM24.5299 13.6497L27.4956 14.1025L27.4956 14.1024L24.5299 13.6497ZM24.5359 13.6106L27.5015 14.0633C27.6556 13.0542 27.2859 12.0359 26.5203 11.3607L24.5359 13.6106ZM19.4861 9.15682L21.4705 6.90688C20.2906 5.86625 18.5072 5.91384 17.3845 7.01591C16.2618 8.11798 16.1812 9.90013 17.1997 11.0991L19.4861 9.15682ZM23.9929 14.462L25.2181 17.2004C26.0799 16.8149 26.7099 16.0461 26.9187 15.1253C27.1274 14.2046 26.8905 13.2393 26.2793 12.5197L23.9929 14.462ZM20.1365 14.7017L21.0089 11.8313L20.9979 11.828L20.1365 14.7017ZM16.7295 12.6982L18.8246 10.551L18.8246 10.551L16.7295 12.6982ZM14.6613 9.35933L17.5185 8.44466C17.5167 8.43901 17.5149 8.43337 17.513 8.42773L14.6613 9.35933ZM14.3221 7.84377L17.2989 7.47127C17.2982 7.46568 17.2975 7.46009 17.2967 7.4545L14.3221 7.84377ZM14.2864 7.58381L11.3152 7.99846L11.3152 7.99846L14.2864 7.58381ZM14.2007 4.69765L16.5164 6.60494C16.5204 6.60006 16.5244 6.59516 16.5284 6.59025L14.2007 4.69765ZM18.4643 4.96488L19.1098 2.03514L19.1062 2.03434L18.4643 4.96488ZM25.666 12.3382L28.6399 12.733C28.6406 12.7276 28.6413 12.7222 28.642 12.7168L25.666 12.3382ZM25.5205 12.869L22.7607 11.6928C22.2762 12.8295 22.5383 14.147 23.4208 15.0118L25.5205 12.869ZM25.7282 13.0725L23.6285 15.2153C24.5129 16.0819 25.8389 16.3161 26.9667 15.8049L25.7282 13.0725ZM26 12.9493L27.2386 15.6817C28.25 15.2232 28.9254 14.2436 28.9943 13.1353L26 12.9493ZM26.1672 12.1982L23.383 11.0809C23.3809 11.0863 23.3787 11.0916 23.3766 11.0969L26.1672 12.1982ZM37.9335 8.65451L37.0841 11.5318L37.0936 11.5345L37.9335 8.65451ZM42.5288 10.815L45.4819 10.2861L45.4813 10.2833L42.5288 10.815ZM40.7466 13.7979L38.3532 11.9891L38.3532 11.9891L40.7466 13.7979ZM40.5783 14.0214L38.1726 12.2291C38.1667 12.2371 38.1607 12.2451 38.1549 12.2532L40.5783 14.0214ZM39.3476 15.4056L41.3669 17.6243C41.3739 17.6179 41.3809 17.6115 41.3878 17.6051L39.3476 15.4056ZM30.5528 17.8285L31.1976 14.8986C31.189 14.8967 31.1804 14.8948 31.1718 14.893L30.5528 17.8285ZM26.6871 15.3769L25.6225 12.5721C24.7401 12.907 24.0668 13.6376 23.8049 14.5444C23.543 15.4511 23.723 16.4282 24.2909 17.182L26.6871 15.3769ZM34.4518 12.4297L35.5164 15.2344C36.9874 14.6761 37.7771 13.0762 37.3257 11.5689C36.8743 10.0617 35.3351 9.15927 33.7993 9.50148L34.4518 12.4297ZM48.7145 28.1503L51.6774 28.6206C51.6826 28.588 51.6872 28.5552 51.6913 28.5224L48.7145 28.1503ZM47.8844 33.3798L44.9215 32.9095C44.9205 32.9162 44.9194 32.9229 44.9184 32.9296L47.8844 33.3798ZM48.7643 24.7138L45.7757 24.975C45.7765 24.9845 45.7774 24.9941 45.7784 25.0037L48.7643 24.7138ZM47.9342 21.5761L45.2262 22.8671L45.2262 22.8671L47.9342 21.5761ZM42.6383 18.3388L42.7121 15.3397L42.7086 15.3396L42.6383 18.3388ZM38.9196 19.1025L37.5557 16.4304L37.5444 16.4363L38.9196 19.1025ZM36.2301 21.3437L33.8636 19.5L33.8606 19.5038L36.2301 21.3437ZM34.4538 24.5312L31.6524 23.4578C31.6495 23.4654 31.6466 23.473 31.6437 23.4807L34.4538 24.5312ZM33.5075 28.1337L36.4706 28.6026L36.4723 28.5919L33.5075 28.1337ZM32.6774 33.3798L29.7143 32.911C29.7094 32.942 29.7049 32.973 29.701 33.0042L32.6774 33.3798ZM32.6276 36.7997L29.6416 37.0896L29.6416 37.0896L32.6276 36.7997ZM33.4743 39.954L30.7605 41.2329L30.7663 41.2451L33.4743 39.954ZM35.4333 42.2617L33.7323 44.7328C33.7373 44.7363 33.7422 44.7397 33.7472 44.743L35.4333 42.2617ZM38.737 43.1913L38.6626 46.1904L38.6678 46.1906L38.737 43.1913ZM46.9381 37.0156L44.1281 35.9651L44.1281 35.9651L46.9381 37.0156ZM46.0085 33.3798L43.0444 32.9167C43.0426 32.9281 43.0409 32.9395 43.0393 32.9509L46.0085 33.3798ZM46.8385 28.0673L49.8026 28.5305C49.8066 28.5049 49.8102 28.4793 49.8136 28.4537L46.8385 28.0673ZM45.2946 36.3183L42.4585 35.3403C42.4562 35.3468 42.454 35.3532 42.4519 35.3597L45.2946 36.3183ZM43.9665 38.9247L46.3912 40.6913C46.3951 40.6859 46.3991 40.6804 46.403 40.6749L43.9665 38.9247ZM41.8747 40.7675L43.2864 43.4146C43.2955 43.4097 43.3046 43.4048 43.3137 43.3999L41.8747 40.7675ZM38.8864 41.3818L38.7936 44.3804L38.8007 44.3806L38.8864 41.3818ZM36.3131 40.5683L34.4291 42.9029C34.4357 42.9082 34.4423 42.9135 34.449 42.9188L36.3131 40.5683ZM34.9352 38.6259L32.1012 39.61C32.1067 39.6259 32.1124 39.6417 32.1182 39.6575L34.9352 38.6259ZM34.4538 36.0693L31.4557 36.1776C31.4562 36.1902 31.4567 36.2028 31.4573 36.2154L34.4538 36.0693ZM34.57 33.413L31.6062 32.9485C31.6021 32.9745 31.5984 33.0006 31.595 33.0267L34.57 33.413ZM35.4001 28.1171L38.3639 28.5817C38.3655 28.5714 38.3671 28.5611 38.3686 28.5507L35.4001 28.1171ZM36.1139 25.2119L38.9465 26.2L38.95 26.1898L36.1139 25.2119ZM37.4587 22.6054L35.0339 20.8388L35.0339 20.8388L37.4587 22.6054ZM39.5504 20.7792L40.9622 23.4263C40.9713 23.4214 40.9804 23.4165 40.9895 23.4116L39.5504 20.7792ZM42.5221 20.1484L42.6139 17.1498L42.6086 17.1496L42.5221 20.1484ZM45.0954 20.9453L43.2364 23.2999C43.2431 23.3051 43.2497 23.3103 43.2564 23.3155L45.0954 20.9453ZM46.4733 22.871L43.6436 23.8674C43.6493 23.8835 43.6551 23.8996 43.661 23.9156L46.4733 22.871ZM46.9547 25.4111L49.9528 25.3027L49.9528 25.3027L46.9547 25.4111ZM64.9616 33.3798L61.9987 32.9095C61.9976 32.9162 61.9966 32.9229 61.9956 32.9296L64.9616 33.3798ZM65.7917 28.1503L68.7546 28.6206C68.7598 28.588 68.7644 28.5552 68.7685 28.5224L65.7917 28.1503ZM64.0153 37.0156L66.8254 38.0661L66.8254 38.0661L64.0153 37.0156ZM55.8141 43.1913L55.7398 46.1904L55.7449 46.1906L55.8141 43.1913ZM52.5104 42.2617L50.8095 44.7328C50.8144 44.7363 50.8194 44.7397 50.8244 44.743L52.5104 42.2617ZM50.5514 39.954L47.8377 41.233L47.8434 41.2451L50.5514 39.954ZM49.7048 36.7997L52.6907 36.5099L52.6907 36.5098L49.7048 36.7997ZM49.7546 33.3798L46.7914 32.911C46.7865 32.942 46.7821 32.973 46.7782 33.0042L49.7546 33.3798ZM50.5846 28.1337L53.5478 28.6026L53.5494 28.5919L50.5846 28.1337ZM51.5309 24.5312L48.7295 23.4578C48.7266 23.4654 48.7237 23.473 48.7209 23.4807L51.5309 24.5312ZM53.3073 21.3437L50.9407 19.5L50.9377 19.5038L53.3073 21.3437ZM55.9967 19.1025L54.6329 16.4304L54.6215 16.4363L55.9967 19.1025ZM59.7155 18.3388L59.7892 15.3397L59.7858 15.3396L59.7155 18.3388ZM65.0114 21.5761L67.7194 20.2851L67.7194 20.2851L65.0114 21.5761ZM65.8415 24.7138L62.8529 24.975C62.8537 24.9845 62.8546 24.9941 62.8555 25.0037L65.8415 24.7138ZM63.9157 28.0673L66.8797 28.5305C66.8837 28.5049 66.8874 28.4793 66.8907 28.4537L63.9157 28.0673ZM63.0856 33.3798L60.1216 32.9167C60.1198 32.9281 60.1181 32.9395 60.1164 32.9509L63.0856 33.3798ZM64.0319 25.4111L67.0299 25.3027L67.0299 25.3027L64.0319 25.4111ZM63.5505 22.871L60.7208 23.8674C60.7264 23.8835 60.7322 23.8996 60.7382 23.9156L63.5505 22.871ZM62.1725 20.9453L60.3136 23.2999C60.3202 23.3051 60.3269 23.3103 60.3335 23.3155L62.1725 20.9453ZM59.5993 20.1484L59.6911 17.1498L59.6858 17.1496L59.5993 20.1484ZM56.6276 20.7792L58.0394 23.4263C58.0485 23.4214 58.0576 23.4165 58.0666 23.4116L56.6276 20.7792ZM54.5358 22.6054L52.1111 20.8388L52.1111 20.8388L54.5358 22.6054ZM53.1911 25.2119L56.0237 26.2L56.0272 26.1898L53.1911 25.2119ZM52.4772 28.1171L55.441 28.5817C55.4426 28.5714 55.4442 28.5611 55.4457 28.5507L52.4772 28.1171ZM51.6471 33.413L48.6833 32.9485C48.6792 32.9745 48.6755 33.0005 48.6721 33.0267L51.6471 33.413ZM51.5309 36.0693L48.5329 36.1776C48.5333 36.1902 48.5339 36.2028 48.5345 36.2154L51.5309 36.0693ZM52.0124 38.6259L49.1783 39.61C49.1839 39.6259 49.1895 39.6417 49.1953 39.6575L52.0124 38.6259ZM53.3903 40.5683L51.5062 42.9029C51.5128 42.9082 51.5195 42.9135 51.5261 42.9188L53.3903 40.5683ZM55.9635 41.3818L55.8708 44.3804L55.8779 44.3806L55.9635 41.3818ZM58.9518 40.7675L60.3636 43.4146C60.3727 43.4097 60.3818 43.4048 60.3908 43.3999L58.9518 40.7675ZM61.0436 38.9247L63.4683 40.6913C63.4723 40.6859 63.4762 40.6804 63.4802 40.6749L61.0436 38.9247ZM62.3717 36.3183L59.5356 35.3403C59.5334 35.3468 59.5312 35.3532 59.529 35.3597L62.3717 36.3183ZM72.3931 18.6709L75.3544 18.1905C75.1187 16.7381 73.8645 15.6709 72.3931 15.6709V18.6709ZM75.8296 39.8545L72.8683 40.3349C73.0762 41.6161 74.0844 42.6184 75.3669 42.8186C76.6494 43.0188 77.9151 42.3715 78.5036 41.2145L75.8296 39.8545ZM86.604 18.6709V15.6709C85.4751 15.6709 84.4418 16.3046 83.93 17.3108L86.604 18.6709ZM89.1108 18.6709L92.0665 19.1845C92.2181 18.3121 91.9766 17.4173 91.4066 16.7397C90.8366 16.0621 89.9963 15.6709 89.1108 15.6709V18.6709ZM84.9106 42.8428V45.8428C86.3693 45.8428 87.6166 44.7935 87.8664 43.3564L84.9106 42.8428ZM83.0347 42.8428L80.0791 42.3286C79.9273 43.201 80.1687 44.096 80.7387 44.7738C81.3087 45.4515 82.1491 45.8428 83.0347 45.8428V42.8428ZM84.8774 32.251L81.9299 31.6925C81.9271 31.7072 81.9244 31.722 81.9218 31.7368L84.8774 32.251ZM86.8104 22.0501L89.7579 22.6086C90.0355 21.1437 89.1952 19.6973 87.7851 19.2129C86.3751 18.7284 84.8232 19.353 84.1419 20.6792L86.8104 22.0501ZM76.1284 42.8428V45.8428C77.2529 45.8428 78.283 45.2139 78.7969 44.2137L76.1284 42.8428ZM74.6675 42.8428L71.7091 43.3406C71.9521 44.785 73.2027 45.8428 74.6675 45.8428V42.8428ZM71.1342 21.8452L74.0926 21.3474C73.8485 19.8963 72.5878 18.8365 71.1163 18.8453C69.6448 18.8541 68.3969 19.9289 68.1701 21.3829L71.1342 21.8452ZM69.4878 32.4004L72.4429 32.9172C72.4461 32.8991 72.4491 32.8809 72.4519 32.8628L69.4878 32.4004ZM67.6616 42.8428V45.8428C69.1191 45.8428 70.3657 44.7953 70.6168 43.3596L67.6616 42.8428ZM65.7856 42.8428L62.8303 42.3272C62.678 43.1999 62.9193 44.0952 63.4893 44.7732C64.0593 45.4513 64.8998 45.8428 65.7856 45.8428V42.8428ZM70.0024 18.6709V15.6709C68.5445 15.6709 67.2976 16.7191 67.0471 18.1553L70.0024 18.6709ZM15.8523 30.3087L14.8832 27.4696C13.6689 27.884 12.8527 29.0248 12.8523 30.3078C12.8519 31.5908 13.6674 32.732 14.8814 33.1473L15.8523 30.3087ZM17.3828 31.3047L15.1406 33.2978C15.1536 33.3124 15.1667 33.3269 15.18 33.3413L17.3828 31.3047ZM17.2832 29.6113L18.9307 32.1184C18.939 32.113 18.9473 32.1075 18.9555 32.102L17.2832 29.6113ZM19.1426 27.6191L16.5577 26.0965C16.5525 26.1053 16.5473 26.1142 16.5422 26.1231L19.1426 27.6191ZM20.0059 24.8799L22.9916 25.172C22.9943 25.1442 22.9966 25.1165 22.9986 25.0887L20.0059 24.8799ZM19.79 22.3232L16.8872 23.0805C16.8915 23.0972 16.8961 23.1139 16.9007 23.1306L19.79 22.3232ZM18.7773 20.3809L16.5196 22.3564C16.5273 22.3652 16.535 22.3739 16.5428 22.3826L18.7773 20.3809ZM16.9844 19.1523L15.8702 21.9378C15.8751 21.9397 15.8799 21.9416 15.8848 21.9436L16.9844 19.1523ZM14.4941 18.6875L14.5647 15.6883C14.544 15.6878 14.5234 15.6876 14.5027 15.6875L14.4941 18.6875ZM8.68359 18.6709L8.69217 15.6709C7.23024 15.6667 5.97817 16.717 5.72788 18.1573L8.68359 18.6709ZM4.4834 42.8428L1.52769 42.3292C1.3761 43.2016 1.61765 44.0964 2.18766 44.774C2.75768 45.4516 3.59792 45.8428 4.4834 45.8428L4.4834 42.8428ZM11.3398 42.8428L11.3635 39.8429C11.3556 39.8428 11.3477 39.8428 11.3398 39.8428L11.3398 42.8428ZM15.042 41.9795L13.6035 39.3468L13.592 39.3532L15.042 41.9795ZM18.7275 35.8867L21.7158 36.1518C21.7167 36.1422 21.7175 36.1325 21.7182 36.1228L18.7275 35.8867ZM18.5117 33.4131L15.606 34.1592L15.6084 34.1687L18.5117 33.4131ZM13.1251 29.4887L13.1148 32.4887C13.1604 32.4888 13.2061 32.488 13.2517 32.486L13.1251 29.4887ZM15.4072 28.9307L14.0812 26.2396C14.076 26.2422 14.0708 26.2448 14.0656 26.2474L15.4072 28.9307ZM10.1611 29.4785L10.1714 26.4785C8.7375 26.4736 7.50056 27.4841 7.21938 28.8902L10.1611 29.4785ZM10.1597 29.4856L10.149 32.4856C11.5831 32.4907 12.8203 31.4802 13.1015 30.0739L10.1597 29.4856ZM8.68715 29.4804L5.73166 28.9655C5.57998 29.8362 5.81996 30.7295 6.38756 31.407C6.95516 32.0845 7.79261 32.4772 8.67643 32.4803L8.68715 29.4804ZM10.2607 20.4473L10.2727 17.4473C8.80998 17.4415 7.55628 18.4914 7.30525 19.9324L10.2607 20.4473ZM14.4277 20.4639L14.5361 17.4658C14.504 17.4647 14.4718 17.464 14.4397 17.4639L14.4277 20.4639ZM16.6523 21.0283L15.0941 23.5919C15.1014 23.5963 15.1088 23.6008 15.1161 23.6052L16.6523 21.0283ZM17.8643 22.5059L15.0435 23.5272C15.0506 23.5469 15.0579 23.5665 15.0655 23.5861L17.8643 22.5059ZM18.0967 24.7803L15.1116 24.4818C15.1106 24.4917 15.1096 24.5017 15.1087 24.5117L18.0967 24.7803ZM17.25 27.3203L14.7598 25.6472L14.7538 25.6562L17.25 27.3203ZM6.66872 41.067L3.71323 40.5521C3.56153 41.423 3.80159 42.3164 4.36933 42.9939C4.93707 43.6714 5.77469 44.064 6.65862 44.067L6.66872 41.067ZM11.4229 41.083L11.4128 44.083H11.4229V41.083ZM8.38381 31.2217V28.2217C6.92559 28.2217 5.67857 29.2702 5.42832 30.7068L8.38381 31.2217ZM9.8125 31.2217L9.82607 28.2217H9.8125V31.2217ZM13.4814 31.2383L13.6313 28.242C13.5859 28.2398 13.5405 28.2385 13.495 28.2383L13.4814 31.2383ZM15.5898 31.9521L13.6741 34.2608C13.6821 34.2674 13.6901 34.274 13.6981 34.2805L15.5898 31.9521ZM16.6855 33.6621L13.7976 34.4744L13.801 34.4863L16.6855 33.6621ZM16.8682 35.9033L19.8502 36.231C19.8516 36.2186 19.8529 36.2061 19.8541 36.1936L16.8682 35.9033ZM15.9883 38.5762L13.4321 37.0059C13.4266 37.0148 13.4212 37.0237 13.4158 37.0327L15.9883 38.5762ZM14.1289 40.4189L15.6173 43.0237C15.6266 43.0184 15.6359 43.013 15.6451 43.0076L14.1289 40.4189ZM160.99 18.6709L163.956 18.2161C163.731 16.752 162.472 15.6709 160.99 15.6709V18.6709ZM162.651 29.4951L159.685 29.9499C159.883 31.2407 160.894 32.2552 162.184 32.4585C163.473 32.6619 164.747 32.0074 165.332 30.84L162.651 29.4951ZM156.01 18.6709V15.6709C155.093 15.6709 154.226 16.0904 153.657 16.8097C153.088 17.529 152.879 18.4691 153.091 19.3616L156.01 18.6709ZM159.596 33.8281L162.551 34.3451C162.621 33.9443 162.609 33.5334 162.515 33.1374L159.596 33.8281ZM158.019 42.8428L155.064 42.3258C154.911 43.1986 155.152 44.0943 155.722 44.7727C156.292 45.4511 157.133 45.8428 158.019 45.8428V42.8428ZM162.833 42.8428V45.8428C164.295 45.8428 165.544 44.7891 165.79 43.3481L162.833 42.8428ZM164.294 34.293L161.704 32.7791C161.522 33.0905 161.398 33.4322 161.337 33.7877L164.294 34.293ZM173.425 18.6709L176.015 20.1847C176.557 19.2569 176.562 18.1099 176.027 17.1778C175.492 16.2457 174.5 15.6709 173.425 15.6709V18.6709ZM168.079 18.6709V15.6709C166.944 15.6709 165.907 16.3114 165.398 17.326L168.079 18.6709ZM143.889 42.8428L143.91 39.8428C143.903 39.8428 143.896 39.8428 143.889 39.8428L143.889 42.8428ZM137.514 42.8428L134.558 42.3311C134.407 43.2033 134.649 44.0976 135.219 44.7748C135.789 45.4519 136.629 45.8428 137.514 45.8428V42.8428ZM141.697 18.6709V15.6709C140.238 15.6709 138.99 16.7212 138.741 18.1593L141.697 18.6709ZM146.445 18.6709L149.401 19.183C149.552 18.3108 149.311 17.4164 148.741 16.7391C148.171 16.0618 147.331 15.6709 146.445 15.6709V18.6709ZM146.443 18.6825L143.487 18.1704C143.337 19.0405 143.577 19.9328 144.144 20.6096C144.711 21.2864 145.548 21.6789 146.431 21.6825L146.443 18.6825ZM147.657 18.6875L147.726 15.6883C147.707 15.6879 147.688 15.6876 147.67 15.6875L147.657 18.6875ZM153.8 21.8584L151.272 23.4747C151.277 23.4816 151.281 23.4885 151.286 23.4954L153.8 21.8584ZM155.045 25.0957L152.089 25.6109L152.089 25.6109L155.045 25.0957ZM155.111 28.8975L158.08 29.3309C158.083 29.3105 158.086 29.29 158.088 29.2696L155.111 28.8975ZM154.563 32.6494L157.524 33.1314C157.527 33.1153 157.53 33.0991 157.532 33.0829L154.563 32.6494ZM153.385 36.6504L150.645 35.4274L150.645 35.4275L153.385 36.6504ZM151.21 39.9043L149.05 37.8219C149.046 37.8264 149.042 37.8308 149.038 37.8353L151.21 39.9043ZM142.953 38.8485L139.997 38.3368C139.847 39.2046 140.085 40.0945 140.65 40.7707C141.214 41.4468 142.047 41.8409 142.928 41.8483L142.953 38.8485ZM144.121 38.8584L144.096 41.8583L144.096 41.8583L144.121 38.8584ZM145.745 22.7155L145.756 19.7155C144.293 19.7102 143.039 20.7617 142.789 22.2039L145.745 22.7155ZM147.441 22.7217L147.552 19.7237C147.519 19.7225 147.486 19.7218 147.452 19.7217L147.441 22.7217ZM149.467 23.3359L147.552 25.6452C147.572 25.662 147.593 25.6786 147.613 25.6949L149.467 23.3359ZM150.396 28.8477L153.366 29.2774C153.368 29.2601 153.37 29.2429 153.373 29.2256L150.396 28.8477ZM149.849 32.6328L146.88 32.2031L146.878 32.2163L149.849 32.6328ZM149.002 35.8203L146.239 34.6503C146.237 34.6557 146.235 34.6611 146.233 34.6665L149.002 35.8203ZM127.302 42.8428L127.323 39.8428C127.316 39.8428 127.309 39.8428 127.302 39.8428L127.302 42.8428ZM131.469 42.0791L130.29 39.3204L130.29 39.3204L131.469 42.0791ZM134.623 39.9043L132.464 37.8219C132.459 37.8264 132.455 37.8308 132.451 37.8353L134.623 39.9043ZM136.798 36.6504L139.537 37.8734L139.537 37.8734L136.798 36.6504ZM137.977 32.6494L140.938 33.1314C140.94 33.1153 140.943 33.0991 140.945 33.0829L137.977 32.6494ZM138.524 28.8975L141.493 29.3309C141.496 29.3105 141.499 29.29 141.501 29.2696L138.524 28.8975ZM137.213 21.8584L134.686 23.4747C134.69 23.4816 134.694 23.4885 134.699 23.4954L137.213 21.8584ZM131.07 18.6875L131.139 15.6883C131.12 15.6879 131.101 15.6876 131.083 15.6875L131.07 18.6875ZM129.856 18.6825L126.9 18.1704C126.75 19.0405 126.99 19.9328 127.557 20.6096C128.124 21.2864 128.961 21.6789 129.844 21.6825L129.856 18.6825ZM129.858 18.6709L132.814 19.183C132.965 18.3108 132.724 17.4164 132.154 16.7391C131.584 16.0618 130.744 15.6709 129.858 15.6709V18.6709ZM125.11 18.6709V15.6709C123.651 15.6709 122.403 16.7212 122.154 18.1593L125.11 18.6709ZM120.927 42.8428L117.971 42.3311C117.82 43.2033 118.062 44.0976 118.632 44.7748C119.202 45.4519 120.042 45.8428 120.927 45.8428V42.8428ZM127.534 38.8584L127.509 41.8583L127.509 41.8583L127.534 38.8584ZM126.366 38.8485L123.41 38.3368C123.26 39.2046 123.499 40.0945 124.063 40.7707C124.627 41.4468 125.46 41.8409 126.341 41.8483L126.366 38.8485ZM132.415 35.8203L129.653 34.6503C129.65 34.6557 129.648 34.6611 129.646 34.6665L132.415 35.8203ZM133.262 32.6328L130.293 32.2031L130.291 32.2163L133.262 32.6328ZM133.81 28.8477L136.779 29.2774C136.781 29.2601 136.783 29.2429 136.786 29.2256L133.81 28.8477ZM132.88 23.3359L130.965 25.6452C130.985 25.662 131.006 25.6786 131.026 25.6949L132.88 23.3359ZM130.854 22.7217L130.966 19.7237C130.932 19.7225 130.899 19.7218 130.865 19.7217L130.854 22.7217ZM129.158 22.7155L129.169 19.7155C127.706 19.7102 126.452 20.7617 126.202 22.2039L129.158 22.7155ZM123.564 18.6709L126.522 19.1742C126.67 18.3031 126.427 17.4109 125.857 16.7357C125.287 16.0605 124.448 15.6709 123.564 15.6709V18.6709ZM118.833 18.6709V15.6709C117.368 15.6709 116.117 16.7293 115.874 18.1743L118.833 18.6709ZM120.742 35.2559L117.785 34.7526C117.78 34.7789 117.776 34.8052 117.772 34.8316L120.742 35.2559ZM119.281 39.5059L121.831 41.0874L121.837 41.0768L119.281 39.5059ZM116.31 42.2617L114.93 39.5977L114.93 39.5977L116.31 42.2617ZM111.91 43.1914L111.848 46.1908C111.855 46.1909 111.863 46.191 111.871 46.1911L111.91 43.1914ZM107.959 42.1455L106.326 44.6621C106.332 44.6662 106.338 44.6702 106.345 44.6743L107.959 42.1455ZM105.701 39.373L102.9 40.4465C102.904 40.457 102.908 40.4676 102.912 40.4781L105.701 39.373ZM105.303 35.2725L102.345 34.7697C102.337 34.8166 102.33 34.8636 102.325 34.9108L105.303 35.2725ZM108.125 18.6709V15.6709C106.662 15.6709 105.413 16.726 105.167 18.1681L108.125 18.6709ZM112.84 18.6709L115.799 19.1646C115.944 18.2947 115.699 17.4049 115.129 16.732C114.559 16.059 113.722 15.6709 112.84 15.6709V18.6709ZM110.067 35.2891L107.108 34.7954C107.1 34.8458 107.093 34.8963 107.087 34.9471L110.067 35.2891ZM110.034 37.165L107.048 37.4522C107.05 37.4733 107.052 37.4945 107.055 37.5156L110.034 37.165ZM110.632 38.5762L108.382 40.561C108.403 40.5844 108.424 40.6075 108.445 40.6302L110.632 38.5762ZM112.325 39.1572L112.445 36.1596C112.433 36.1592 112.421 36.1587 112.41 36.1584L112.325 39.1572ZM114.334 38.709L112.695 36.1961L112.695 36.1962L114.334 38.709ZM115.479 37.3145L118.24 38.49C118.242 38.484 118.245 38.4779 118.247 38.4719L115.479 37.3145ZM116.044 35.2891L113.085 34.7925L113.084 34.803L116.044 35.2891ZM102.146 30.2256L103.462 32.9216C103.467 32.9195 103.471 32.9173 103.475 32.9152L102.146 30.2256ZM101.38 30.5463L100.381 27.7172C99.2129 28.1295 98.4181 29.2178 98.3809 30.4564C98.3438 31.695 99.072 32.8289 100.214 33.3105L101.38 30.5463ZM104.404 28.2666L101.918 26.5876L101.913 26.5949L104.404 28.2666ZM105.4 25.1787L108.392 25.3983C108.393 25.3862 108.394 25.3741 108.395 25.362L105.4 25.1787ZM105.052 22.3564L102.23 23.3754C102.234 23.3869 102.238 23.3984 102.243 23.4098L105.052 22.3564ZM103.724 20.3477L105.74 18.126L105.74 18.126L103.724 20.3477ZM101.565 19.1357L100.617 21.9818C100.632 21.9868 100.647 21.9917 100.662 21.9965L101.565 19.1357ZM98.793 18.6875L98.8582 15.6882C98.8388 15.6878 98.8195 15.6876 98.8001 15.6875L98.793 18.6875ZM91.8037 18.6709L91.8108 15.6709C90.3487 15.6674 89.097 16.7185 88.8477 18.1593L91.8037 18.6709ZM87.6201 42.8428L84.6641 42.3311C84.5131 43.2033 84.755 44.0976 85.325 44.7748C85.895 45.4519 86.735 45.8428 87.6201 45.8428V42.8428ZM95.6221 42.8428L95.6652 39.8431C95.6508 39.8429 95.6365 39.8428 95.6221 39.8428L95.6221 42.8428ZM99.7393 42.0459L100.99 44.7727C100.997 44.7695 101.004 44.7664 101.011 44.7632L99.7393 42.0459ZM102.628 39.5889L100.14 37.9131L100.136 37.9188L102.628 39.5889ZM103.873 35.6045L100.882 35.3769C100.881 35.3895 100.88 35.4021 100.879 35.4147L103.873 35.6045ZM102.13 30.9727L100.336 33.3775C100.352 33.3889 100.367 33.4001 100.382 33.4111L102.13 30.9727ZM98.7598 28.4326L100.101 31.1159C100.109 31.1119 100.117 31.1079 100.125 31.1039L98.7598 28.4326ZM97.4379 28.7933L97.4276 31.7933C97.525 31.7936 97.6224 31.7892 97.7193 31.7801L97.4379 28.7933ZM99.9551 27.3535L97.4589 25.6894C97.4497 25.7033 97.4406 25.7172 97.4315 25.7312L99.9551 27.3535ZM100.553 25.6768L97.5806 25.2688L97.5799 25.2737L100.553 25.6768ZM100.553 24.1992L97.5999 24.7292L97.6024 24.7427L100.553 24.1992ZM98.5938 22.7217L98.7028 19.7237C98.6725 19.7226 98.6422 19.7219 98.6119 19.7217L98.5938 22.7217ZM95.8545 22.7051L95.8727 19.7051C94.4064 19.6962 93.1486 20.7485 92.8985 22.1933L95.8545 22.7051ZM94.8021 28.7842L91.846 28.2724C91.6953 29.1428 91.9359 30.0353 92.5036 30.7121C93.0713 31.3889 93.9083 31.7811 94.7917 31.7841L94.8021 28.7842ZM93.06 38.8469L90.1039 38.3351C89.9533 39.2051 90.1936 40.0973 90.7608 40.774C91.328 41.4507 92.1645 41.8432 93.0475 41.8468L93.06 38.8469ZM94.1927 32.3042L94.2042 29.3042C92.7405 29.2985 91.4863 30.3501 91.2366 31.7924L94.1927 32.3042ZM95.8379 38.8584L95.8254 41.8584C95.8629 41.8585 95.9004 41.858 95.9378 41.8567L95.8379 38.8584ZM97.5312 38.3936L95.979 35.8264C95.97 35.8318 95.9611 35.8372 95.9522 35.8428L97.5312 38.3936ZM98.6602 37.2314L96.0774 35.7053C96.0687 35.7199 96.0602 35.7346 96.0518 35.7494L98.6602 37.2314ZM99.208 35.5547L96.2368 35.1401C96.2345 35.1564 96.2324 35.1727 96.2304 35.189L99.208 35.5547ZM99.2578 34.127L96.2609 34.2632C96.262 34.2874 96.2634 34.3116 96.2651 34.3357L99.2578 34.127ZM98.8594 32.8984L96.4129 34.6347C96.4219 34.6474 96.431 34.66 96.4402 34.6725L98.8594 32.8984ZM97.6143 32.3174L97.84 29.3259C97.7688 29.3205 97.6973 29.3177 97.6258 29.3174L97.6143 32.3174ZM29.1552 14.7723L29.1629 14.7217L23.2316 13.8163L23.2239 13.8669L29.1552 14.7723ZM25.7273 17.2838L25.7366 17.2852L26.6425 11.354L26.6332 11.3526L25.7273 17.2838ZM28.5057 19.3121C28.707 18.0407 28.9132 16.5842 29.1556 14.7013L23.2048 13.935C22.9671 15.7806 22.769 17.1768 22.5795 18.3739L28.5057 19.3121ZM25.548 15.843H25.5426V21.843H25.548V15.843ZM28.4324 19.7671L28.5037 19.3566L22.5923 18.3294L22.521 18.7399L28.4324 19.7671ZM28.0908 21.7319C28.2093 21.0908 28.323 20.4405 28.4378 19.7352L22.5156 18.7717C22.4082 19.4322 22.3018 20.0402 22.1907 20.6417L28.0908 21.7319ZM24.6122 41.7521L28.0965 21.7004L22.1851 20.6732L18.7008 40.7249L24.6122 41.7521ZM31.3254 38.2385H21.6565V44.2385H31.3254V38.2385ZM33.9423 43.5661L34.2743 41.7897L28.3764 40.6873L28.0444 42.4637L33.9423 43.5661ZM21.3478 46.0149H30.9933V40.0149H21.3478V46.0149ZM20.8166 46.0149H21.3478V40.0149H20.8166V46.0149ZM19.4553 46.0149H20.8166V40.0149H19.4553V46.0149ZM20.4663 19.7625L16.4999 42.4993L22.4106 43.5305L26.3771 20.7936L20.4663 19.7625ZM21.0478 16.2714C20.8429 17.442 20.6279 18.6695 20.4543 19.8368L26.3891 20.7192C26.5493 19.6418 26.7503 18.4924 26.958 17.3058L21.0478 16.2714ZM21.5643 13.197C21.4175 14.1585 21.237 15.1906 21.0478 16.2713L26.958 17.3058C27.1447 16.2391 27.3371 15.1404 27.4956 14.1025L21.5643 13.197ZM21.5702 13.1579L21.5643 13.197L27.4956 14.1024L27.5015 14.0633L21.5702 13.1579ZM17.5017 11.4068L22.5515 15.8606L26.5203 11.3607L21.4705 6.90688L17.5017 11.4068ZM26.2793 12.5197L21.7724 7.21451L17.1997 11.0991L21.7066 16.4043L26.2793 12.5197ZM19.2642 17.5721C21.2274 18.1687 23.3441 18.0388 25.2181 17.2004L22.7678 11.7236C22.2203 11.9685 21.5937 12.0091 21.0089 11.8314L19.2642 17.5721ZM14.6343 14.8454C15.9369 16.1164 17.5305 17.0525 19.2752 17.5754L20.9979 11.828C20.1764 11.5818 19.4306 11.1423 18.8246 10.551L14.6343 14.8454ZM11.8042 10.274C12.3585 12.0056 13.3316 13.5742 14.6343 14.8454L18.8246 10.551C18.2188 9.95983 17.7718 9.23593 17.5185 8.44466L11.8042 10.274ZM11.3453 8.21626C11.4335 8.92095 11.589 9.61561 11.8096 10.2909L17.513 8.42773C17.4111 8.11565 17.3394 7.79541 17.2989 7.47127L11.3453 8.21626ZM11.3152 7.99846C11.3301 8.10533 11.3404 8.17892 11.3475 8.23304L17.2967 7.4545C17.2856 7.36922 17.2712 7.26656 17.2576 7.16916L11.3152 7.99846ZM11.8851 2.79036C11.4215 3.35315 11.2622 3.93986 11.2029 4.18968C11.1298 4.49789 11.1019 4.78138 11.0892 4.98732C11.0637 5.40254 11.0822 5.82725 11.1063 6.16766C11.1557 6.86318 11.2599 7.60232 11.3152 7.99846L17.2576 7.16916C17.198 6.74197 17.1239 6.20263 17.0913 5.7432C17.0836 5.63464 17.0793 5.54393 17.0776 5.4713C17.0768 5.43559 17.0768 5.40758 17.0771 5.38676C17.0773 5.36561 17.0779 5.35586 17.0779 5.3561C17.0779 5.35652 17.0776 5.36069 17.0769 5.36829C17.0762 5.37583 17.0749 5.38808 17.0728 5.40452C17.0689 5.43461 17.06 5.49429 17.0408 5.57514C17.0224 5.65257 16.9867 5.78311 16.9191 5.94315C16.8537 6.09787 16.7322 6.34288 16.5164 6.60494L11.8851 2.79036ZM19.1062 2.03434C18.7324 1.95249 17.6673 1.72564 16.6037 1.59281C16.0864 1.5282 15.4507 1.47002 14.8505 1.49057C14.556 1.50066 14.1503 1.53265 13.7215 1.64493C13.3704 1.73686 12.5277 1.99992 11.873 2.80505L16.5284 6.59025C16.2388 6.94641 15.9248 7.15113 15.7158 7.26164C15.5058 7.37268 15.3329 7.42527 15.2413 7.44925C15.0699 7.49412 14.9854 7.48947 15.0559 7.48706C15.1856 7.48261 15.4553 7.496 15.8601 7.54656C16.6408 7.64406 17.487 7.82194 17.8225 7.89542L19.1062 2.03434ZM28.642 12.7168C29.0715 9.34076 27.6499 6.74313 25.593 5.00731C23.6649 3.38015 21.1967 2.49491 19.1098 2.03514L17.8189 7.89462C19.4183 8.24699 20.8318 8.84031 21.7234 9.59272C22.4862 10.2365 22.8223 10.9194 22.69 11.9595L28.642 12.7168ZM28.2803 14.0452C28.4589 13.6262 28.5799 13.1849 28.6399 12.733L22.6921 11.9433C22.7036 11.8568 22.7267 11.7725 22.7607 11.6928L28.2803 14.0452ZM27.8278 10.9297L27.6201 10.7262L23.4208 15.0118L23.6285 15.2153L27.8278 10.9297ZM24.7615 10.2169L24.4896 10.3401L26.9667 15.8049L27.2386 15.6817L24.7615 10.2169ZM23.3766 11.0969C23.1665 11.6294 23.0413 12.1916 23.0058 12.7632L28.9943 13.1353C28.9907 13.1918 28.9784 13.2472 28.9578 13.2994L23.3766 11.0969ZM38.7829 5.77726C36.3869 5.06996 33.4071 4.60105 30.5873 5.16382C27.6055 5.75893 24.8063 7.53398 23.383 11.0809L28.9514 13.3154C29.5009 11.9461 30.4306 11.3134 31.7616 11.0478C33.2547 10.7498 35.1717 10.9672 37.0841 11.5318L38.7829 5.77726ZM45.4813 10.2833C45.2942 9.24435 44.6708 8.58941 44.3886 8.32154C44.0484 7.99856 43.6829 7.75708 43.3999 7.58861C42.8242 7.24588 42.1605 6.95541 41.5941 6.73052C40.4342 6.26998 39.2144 5.90308 38.7734 5.77448L37.0936 11.5345C37.4823 11.6479 38.4865 11.9523 39.38 12.3071C39.8403 12.4898 40.1607 12.643 40.3308 12.7442C40.4207 12.7977 40.3686 12.7783 40.2577 12.673C40.2048 12.6229 39.7266 12.1812 39.5763 11.3468L45.4813 10.2833ZM43.14 15.6067C43.4254 15.229 43.9546 14.5306 44.4021 13.8473C44.6217 13.512 44.8738 13.1021 45.0738 12.6871C45.1731 12.4812 45.2947 12.2023 45.3863 11.8828C45.4607 11.6231 45.6128 11.0174 45.4819 10.2861L39.5758 11.3439C39.5165 11.0126 39.5313 10.7442 39.5493 10.5851C39.5681 10.4198 39.5992 10.2969 39.6185 10.2297C39.6549 10.1028 39.6864 10.0456 39.6688 10.0821C39.6351 10.152 39.5464 10.3102 39.3827 10.5601C39.0637 11.0472 38.6565 11.5878 38.3532 11.9891L43.14 15.6067ZM42.984 15.8138C43.0221 15.7628 43.0721 15.6966 43.14 15.6067L38.3532 11.9891C38.2897 12.0731 38.2256 12.1579 38.1726 12.2291L42.984 15.8138ZM41.3878 17.6051C41.9831 17.0529 42.5236 16.4451 43.0018 15.7897L38.1549 12.2532C37.9045 12.5963 37.6208 12.9155 37.3075 13.2061L41.3878 17.6051ZM29.908 20.7583C34.1317 21.6879 38.3194 20.3978 41.3669 17.6243L37.3284 13.1869C35.6238 14.7382 33.395 15.3822 31.1976 14.8986L29.908 20.7583ZM24.2909 17.182C25.675 19.0192 27.6833 20.2893 29.9338 20.7639L31.1718 14.893C30.3293 14.7153 29.5879 14.2417 29.0832 13.5717L24.2909 17.182ZM33.3872 9.6249L25.6225 12.5721L27.7517 18.1816L35.5164 15.2344L33.3872 9.6249ZM26.8497 17.1972L35.1043 15.3578L33.7993 9.50148L25.5448 11.3408L26.8497 17.1972ZM45.7516 27.68L44.9215 32.9095L50.8473 33.8501L51.6774 28.6206L45.7516 27.68ZM45.7784 25.0037C45.8674 25.9205 45.8545 26.844 45.7377 27.7782L51.6913 28.5224C51.8623 27.1546 51.8826 25.787 51.7503 24.4239L45.7784 25.0037ZM45.2262 22.8671C45.513 23.4686 45.7046 24.1618 45.7757 24.975L51.7529 24.4527C51.6248 22.9859 51.263 21.5872 50.6422 20.2851L45.2262 22.8671ZM44.2726 21.7499C44.6909 22.0341 44.999 22.3905 45.2262 22.8671L50.6422 20.2851C49.9619 18.8581 48.9529 17.676 47.6447 16.7871L44.2726 21.7499ZM42.5646 21.3379C43.506 21.3611 44.0075 21.5698 44.2726 21.7499L47.6447 16.7871C46.1832 15.7941 44.4712 15.383 42.7121 15.3397L42.5646 21.3379ZM40.2835 21.7745C40.8261 21.4976 41.5558 21.3143 42.568 21.338L42.7086 15.3396C40.8876 15.297 39.1381 15.6228 37.5557 16.4304L40.2835 21.7745ZM38.5967 23.1874C39.0767 22.5713 39.6373 22.1078 40.2948 21.7687L37.5444 16.4363C36.099 17.1818 34.8666 18.2125 33.8636 19.5L38.5967 23.1874ZM37.2552 25.6046C37.6103 24.6779 38.0614 23.8768 38.5997 23.1836L33.8606 19.5038C32.9379 20.6921 32.2048 22.016 31.6524 23.4578L37.2552 25.6046ZM36.4723 28.5919C36.6284 27.5819 36.8909 26.5793 37.2638 25.5817L31.6437 23.4807C31.1312 24.8515 30.7629 26.2506 30.5427 27.6755L36.4723 28.5919ZM35.6405 33.8487L36.4706 28.6026L30.5443 27.6649L29.7143 32.911L35.6405 33.8487ZM35.6136 36.5099C35.5245 35.5921 35.5377 34.6754 35.6538 33.7555L29.701 33.0042C29.5294 34.3642 29.5094 35.7274 29.6416 37.0896L35.6136 36.5099ZM36.188 38.6752C35.8919 38.0467 35.6935 37.3331 35.6136 36.5098L29.6416 37.0896C29.7831 38.5463 30.1491 39.9356 30.7605 41.2329L36.188 38.6752ZM37.1342 39.7905C36.724 39.5081 36.4142 39.1495 36.1823 38.663L30.7663 41.2451C31.4419 42.6622 32.4381 43.842 33.7323 44.7328L37.1342 39.7905ZM38.8113 40.1923C37.8864 40.1693 37.3882 39.963 37.1193 39.7803L33.7472 44.743C35.2049 45.7335 36.9091 46.147 38.6626 46.1904L38.8113 40.1923ZM41.1251 39.7556C40.5885 40.0295 39.8496 40.2162 38.8062 40.1921L38.6678 46.1906C40.5019 46.2329 42.2643 45.9105 43.8528 45.0997L41.1251 39.7556ZM42.8088 38.3632C42.3489 38.9555 41.7959 39.4132 41.1251 39.7556L43.8528 45.0997C45.3069 44.3575 46.5469 43.3321 47.5479 42.043L42.8088 38.3632ZM44.1281 35.9651C43.785 36.8829 43.3423 37.6761 42.8088 38.3632L47.5479 42.043C48.4754 40.8485 49.2059 39.5167 49.7482 38.0661L44.1281 35.9651ZM44.9184 32.9296C44.7616 33.9625 44.4988 34.9734 44.1281 35.9651L49.7482 38.0661C50.2629 36.6893 50.6309 35.2763 50.8505 33.83L44.9184 32.9296ZM48.9725 33.843L49.8026 28.5305L43.8745 27.6042L43.0444 32.9167L48.9725 33.843ZM48.1307 37.2963C48.5235 36.1571 48.8065 34.9939 48.9776 33.8087L43.0393 32.9509C42.9227 33.758 42.7297 34.5537 42.4585 35.3403L48.1307 37.2963ZM46.403 40.6749C47.148 39.6378 47.7247 38.5004 48.1373 37.2769L42.4519 35.3597C42.2225 36.0398 41.9138 36.6401 41.5299 37.1745L46.403 40.6749ZM43.3137 43.3999C44.5375 42.7309 45.5696 41.8189 46.3912 40.6913L41.5418 37.1582C41.2344 37.58 40.872 37.8966 40.4357 38.1352L43.3137 43.3999ZM38.8007 44.3806C40.3623 44.4252 41.8995 44.1543 43.2864 43.4146L40.4629 38.1205C40.1896 38.2662 39.7347 38.4048 38.9721 38.383L38.8007 44.3806ZM34.449 42.9188C35.7334 43.9375 37.2754 44.3334 38.7936 44.3803L38.9791 38.3832C38.6663 38.3735 38.4631 38.3313 38.3422 38.293C38.2275 38.2568 38.1853 38.2241 38.1773 38.2178L34.449 42.9188ZM32.1182 39.6575C32.5867 40.9369 33.3607 42.0407 34.4291 42.9029L38.1972 38.2337C38.0039 38.0777 37.8593 37.8865 37.7523 37.5943L32.1182 39.6575ZM31.4573 36.2154C31.5145 37.3867 31.7238 38.523 32.1012 39.61L37.7692 37.6419C37.5933 37.1351 37.4816 36.567 37.4502 35.9231L31.4573 36.2154ZM31.595 33.0267C31.4616 34.0538 31.417 35.1051 31.4557 36.1776L37.4518 35.9609C37.4242 35.1962 37.457 34.4767 37.545 33.7994L31.595 33.0267ZM32.4362 27.6526L31.6062 32.9485L37.5338 33.8776L38.3639 28.5817L32.4362 27.6526ZM33.2813 24.2237C32.8873 25.3534 32.6034 26.5074 32.4316 27.6835L38.3686 28.5507C38.4845 27.7568 38.6765 26.974 38.9465 26.2L33.2813 24.2237ZM35.0339 20.8388C34.2833 21.8692 33.7009 23.0068 33.2778 24.2339L38.95 26.1898C39.191 25.4911 39.5051 24.8911 39.8834 24.372L35.0339 20.8388ZM38.1387 18.1322C36.901 18.7923 35.86 19.705 35.0339 20.8388L39.8834 24.372C40.1862 23.9563 40.5397 23.6516 40.9622 23.4263L38.1387 18.1322ZM42.6086 17.1496C41.0409 17.1044 39.5003 17.3877 38.1114 18.1469L40.9895 23.4116C41.2608 23.2633 41.7013 23.126 42.4356 23.1471L42.6086 17.1496ZM46.9543 18.5906C45.6684 17.5754 44.1192 17.1959 42.6139 17.1498L42.4303 23.147C42.7568 23.157 42.9677 23.1999 43.0915 23.2382C43.1519 23.257 43.1897 23.274 43.2103 23.2845C43.2207 23.2899 43.2275 23.294 43.2313 23.2964C43.2332 23.2976 43.2345 23.2985 43.2353 23.2991C43.2357 23.2994 43.236 23.2996 43.2362 23.2997C43.2363 23.2998 43.2363 23.2998 43.2364 23.2999C43.2364 23.2999 43.2364 23.2999 43.2364 23.2999C43.2364 23.2999 43.2364 23.2999 43.2364 23.2999L46.9543 18.5906ZM49.303 21.8747C48.84 20.5598 48.0437 19.4357 46.9344 18.575L43.2564 23.3155C43.4309 23.4509 43.5532 23.6106 43.6436 23.8674L49.303 21.8747ZM49.9528 25.3027C49.9093 24.0997 49.6966 22.933 49.2856 21.8265L43.661 23.9156C43.8255 24.3585 43.9338 24.8852 43.9567 25.5194L49.9528 25.3027ZM49.8136 28.4537C49.9469 27.4266 49.9916 26.3752 49.9528 25.3027L43.9567 25.5194C43.9843 26.2842 43.9515 27.0036 43.8635 27.681L49.8136 28.4537ZM67.9245 33.8501L68.7546 28.6206L62.8288 27.68L61.9987 32.9095L67.9245 33.8501ZM66.8254 38.0661C67.34 36.6893 67.7081 35.2763 67.9276 33.83L61.9956 32.9296C61.8388 33.9625 61.576 34.9734 61.2052 35.9651L66.8254 38.0661ZM64.6251 42.043C65.5525 40.8485 66.2831 39.5167 66.8254 38.0661L61.2052 35.9651C60.8621 36.8829 60.4195 37.6761 59.886 38.3632L64.6251 42.043ZM60.9299 45.0997C62.3841 44.3575 63.6241 43.3321 64.6251 42.043L59.886 38.3632C59.426 38.9555 58.8731 39.4132 58.2022 39.7556L60.9299 45.0997ZM55.7449 46.1906C57.5791 46.2329 59.3415 45.9105 60.9299 45.0997L58.2022 39.7556C57.6657 40.0295 56.9268 40.2162 55.8833 40.1921L55.7449 46.1906ZM50.8244 44.743C52.2821 45.7335 53.9863 46.147 55.7398 46.1904L55.8885 40.1923C54.9636 40.1693 54.4653 39.963 54.1965 39.7803L50.8244 44.743ZM47.8434 41.2451C48.519 42.6622 49.5153 43.842 50.8095 44.7328L54.2114 39.7905C53.8011 39.5081 53.4914 39.1495 53.2594 38.663L47.8434 41.2451ZM46.7188 37.0896C46.8602 38.5463 47.2263 39.9356 47.8377 41.2329L53.2652 38.6751C52.969 38.0467 52.7706 37.3331 52.6907 36.5099L46.7188 37.0896ZM46.7782 33.0042C46.6065 34.3642 46.5865 35.7274 46.7188 37.0897L52.6907 36.5098C52.6016 35.5921 52.6148 34.6754 52.7309 33.7555L46.7782 33.0042ZM47.6215 27.6649L46.7914 32.911L52.7177 33.8487L53.5478 28.6026L47.6215 27.6649ZM48.7209 23.4807C48.2084 24.8515 47.84 26.2506 47.6198 27.6755L53.5494 28.5919C53.7055 27.5819 53.968 26.5793 54.341 25.5817L48.7209 23.4807ZM50.9377 19.5038C50.0151 20.6921 49.282 22.016 48.7295 23.4578L54.3323 25.6046C54.6874 24.6779 55.1386 23.8768 55.6768 23.1836L50.9377 19.5038ZM54.6215 16.4363C53.1761 17.1818 51.9438 18.2125 50.9407 19.5L55.6739 23.1874C56.1539 22.5713 56.7145 22.1078 57.372 21.7687L54.6215 16.4363ZM59.7858 15.3396C57.9647 15.297 56.2152 15.6228 54.6329 16.4304L57.3606 21.7745C57.9032 21.4976 58.6329 21.3143 59.6452 21.338L59.7858 15.3396ZM64.7219 16.7871C63.2604 15.7941 61.5483 15.383 59.7892 15.3397L59.6417 21.3379C60.5832 21.3611 61.0847 21.5698 61.3497 21.7499L64.7219 16.7871ZM67.7194 20.2851C67.0391 18.8581 66.0301 17.6761 64.7219 16.7871L61.3497 21.7499C61.7681 22.0341 62.0762 22.3905 62.3034 22.8671L67.7194 20.2851ZM68.8301 24.4527C68.7019 22.9859 68.3402 21.5872 67.7194 20.2851L62.3034 22.8671C62.5902 23.4686 62.7818 24.1618 62.8529 24.975L68.8301 24.4527ZM68.7685 28.5224C68.9395 27.1546 68.9598 25.787 68.8274 24.4239L62.8555 25.0037C62.9445 25.9205 62.9316 26.844 62.8148 27.7782L68.7685 28.5224ZM60.9517 27.6042L60.1216 32.9167L66.0496 33.843L66.8797 28.5305L60.9517 27.6042ZM61.0339 25.5194C61.0615 26.2842 61.0286 27.0036 60.9407 27.681L66.8907 28.4537C67.0241 27.4266 67.0687 26.3752 67.0299 25.3027L61.0339 25.5194ZM60.7382 23.9156C60.9027 24.3585 61.0109 24.8852 61.0339 25.5194L67.0299 25.3027C66.9865 24.0997 66.7737 22.933 66.3627 21.8265L60.7382 23.9156ZM60.3335 23.3155C60.508 23.4509 60.6303 23.6106 60.7208 23.8674L66.3802 21.8747C65.9172 20.5598 65.1209 19.4357 64.0115 18.575L60.3335 23.3155ZM59.5075 23.147C59.8339 23.157 60.0448 23.1999 60.1686 23.2382C60.2291 23.257 60.2669 23.274 60.2875 23.2845C60.2979 23.2899 60.3047 23.294 60.3084 23.2964C60.3104 23.2976 60.3117 23.2985 60.3125 23.2991C60.3129 23.2994 60.3132 23.2996 60.3133 23.2997C60.3134 23.2998 60.3135 23.2998 60.3135 23.2999C60.3136 23.2999 60.3136 23.2999 60.3136 23.2999C60.3136 23.2999 60.3136 23.2999 60.3136 23.2999C60.3136 23.2999 60.3136 23.2999 60.3136 23.2999L64.0315 18.5906C62.7455 17.5754 61.1964 17.1959 59.6911 17.1498L59.5075 23.147ZM58.0666 23.4116C58.3379 23.2633 58.7784 23.126 59.5128 23.1471L59.6858 17.1496C58.118 17.1044 56.5774 17.3877 55.1886 18.1469L58.0666 23.4116ZM56.9605 24.372C57.2634 23.9563 57.6169 23.6516 58.0394 23.4263L55.2158 18.1322C53.9782 18.7923 52.9371 19.705 52.1111 20.8388L56.9605 24.372ZM56.0272 26.1898C56.2681 25.4911 56.5823 24.8911 56.9605 24.372L52.1111 20.8388C51.3604 21.8692 50.7781 23.0068 50.355 24.2339L56.0272 26.1898ZM55.4457 28.5507C55.5617 27.7568 55.7537 26.974 56.0237 26.2L50.3585 24.2237C49.9644 25.3534 49.6805 26.5074 49.5087 27.6835L55.4457 28.5507ZM54.6109 33.8776L55.441 28.5817L49.5134 27.6526L48.6833 32.9485L54.6109 33.8776ZM54.529 35.9609C54.5013 35.1962 54.5342 34.4767 54.6221 33.7994L48.6721 33.0267C48.5387 34.0538 48.4941 35.1051 48.5329 36.1776L54.529 35.9609ZM54.8464 37.6419C54.6704 37.1351 54.5588 36.567 54.5274 35.9231L48.5345 36.2154C48.5916 37.3866 48.8009 38.523 49.1783 39.61L54.8464 37.6419ZM55.2744 38.2337C55.081 38.0777 54.9364 37.8865 54.8294 37.5943L49.1953 39.6575C49.6638 40.9369 50.4379 42.0407 51.5062 42.9029L55.2744 38.2337ZM56.0563 38.3832C55.7435 38.3735 55.5403 38.3313 55.4193 38.293C55.3047 38.2568 55.2624 38.2241 55.2545 38.2178L51.5261 42.9188C52.8106 43.9375 54.3525 44.3334 55.8708 44.3803L56.0563 38.3832ZM57.5401 38.1205C57.2668 38.2662 56.8119 38.4048 56.0492 38.383L55.8779 44.3806C57.4394 44.4252 58.9767 44.1543 60.3636 43.4146L57.5401 38.1205ZM58.6189 37.1582C58.3115 37.58 57.9492 37.8966 57.5128 38.1352L60.3908 43.3999C61.6146 42.7309 62.6468 41.8189 63.4683 40.6913L58.6189 37.1582ZM59.529 35.3597C59.2997 36.0398 58.991 36.6401 58.6071 37.1745L63.4802 40.6749C64.2252 39.6378 64.8019 38.5004 65.2145 37.2769L59.529 35.3597ZM60.1164 32.9509C59.9998 33.758 59.8069 34.5537 59.5356 35.3403L65.2079 37.2963C65.6007 36.1571 65.8836 34.9938 66.0548 33.8087L60.1164 32.9509ZM72.3931 15.6709H71.6294V21.6709H72.3931V15.6709ZM78.7909 39.3741L75.3544 18.1905L69.4318 19.1513L72.8683 40.3349L78.7909 39.3741ZM83.93 17.3108L73.1556 38.4944L78.5036 41.2145L89.278 20.0309L83.93 17.3108ZM87.4507 15.6709H86.604V21.6709H87.4507V15.6709ZM88.5464 15.6709H87.4507V21.6709H88.5464V15.6709ZM89.1108 15.6709H88.5464V21.6709H89.1108V15.6709ZM87.8664 43.3564L92.0665 19.1845L86.1551 18.1573L81.9549 42.3292L87.8664 43.3564ZM83.0347 45.8428H84.9106V39.8428H83.0347V45.8428ZM81.9218 31.7368L80.0791 42.3286L85.9903 43.357L87.833 32.7652L81.9218 31.7368ZM83.8628 21.4916L81.9299 31.6925L87.825 32.8095L89.7579 22.6086L83.8628 21.4916ZM78.7969 44.2137L89.4788 23.421L84.1419 20.6792L73.46 41.4719L78.7969 44.2137ZM74.6675 45.8428H76.1284V39.8428H74.6675V45.8428ZM68.1758 22.3431L71.7091 43.3406L77.6259 42.345L74.0926 21.3474L68.1758 22.3431ZM72.4519 32.8628L74.0984 22.3076L68.1701 21.3829L66.5236 31.938L72.4519 32.8628ZM70.6168 43.3596L72.4429 32.9172L66.5326 31.8836L64.7065 42.326L70.6168 43.3596ZM65.7856 45.8428H67.6616V39.8428H65.7856V45.8428ZM67.0471 18.1553L62.8303 42.3272L68.741 43.3583L72.9578 19.1865L67.0471 18.1553ZM70.6001 15.6709H70.0024V21.6709H70.6001V15.6709ZM71.6294 15.6709H70.6001V21.6709H71.6294V15.6709ZM14.8814 33.1473C15.0496 33.2048 15.1089 33.2622 15.1406 33.2978L19.625 29.3116C18.8521 28.442 17.8911 27.8354 16.8232 27.4702L14.8814 33.1473ZM15.6357 27.1042C15.4114 27.2516 15.1632 27.374 14.8832 27.4696L16.8214 33.1479C17.5671 32.8933 18.2728 32.5508 18.9307 32.1184L15.6357 27.1042ZM16.5422 26.1231C16.3068 26.5323 16.0047 26.8563 15.6109 27.1207L18.9555 32.102C20.1112 31.326 21.0487 30.3218 21.7429 29.1152L16.5422 26.1231ZM17.0201 24.5878C16.9591 25.2116 16.7925 25.6979 16.5577 26.0965L21.7275 29.1417C22.4445 27.9245 22.8534 26.5846 22.9916 25.172L17.0201 24.5878ZM16.9007 23.1306C17.0009 23.489 17.0608 23.9883 17.0131 24.6711L22.9986 25.0887C23.0838 23.8678 22.9998 22.6627 22.6794 21.5159L16.9007 23.1306ZM16.5428 22.3826C16.6673 22.5215 16.7955 22.7289 16.8872 23.0805L22.6929 21.566C22.3862 20.3902 21.8392 19.3027 21.0119 18.3791L16.5428 22.3826ZM15.8848 21.9436C16.2204 22.0758 16.4042 22.2245 16.5196 22.3564L21.0351 18.4053C20.2208 17.4747 19.2093 16.8044 18.0839 16.3611L15.8848 21.9436ZM14.4236 21.6867C15.0809 21.7021 15.5459 21.808 15.8702 21.9378L18.0985 16.3669C16.9841 15.9211 15.7889 15.7171 14.5647 15.6883L14.4236 21.6867ZM8.67502 21.6709L14.4856 21.6875L14.5027 15.6875L8.69217 15.6709L8.67502 21.6709ZM7.43911 43.3564L11.6393 19.1845L5.72788 18.1573L1.52769 42.3292L7.43911 43.3564ZM5.18066 39.8428H4.4834V45.8428H5.18066V39.8428ZM6.35938 39.8428H5.18066V45.8428H6.35938V39.8428ZM11.3398 39.8428H6.35938V45.8428H11.3398V39.8428ZM13.592 39.3532C13.0474 39.6538 12.3362 39.8505 11.3635 39.8429L11.3162 45.8427C13.1547 45.8572 14.9115 45.4783 16.4919 44.6058L13.592 39.3532ZM15.0262 37.979C14.6691 38.5741 14.2079 39.0166 13.6035 39.3468L16.4805 44.6121C18.0233 43.7692 19.2665 42.5737 20.1711 41.0659L15.0262 37.979ZM15.7393 35.6216C15.6526 36.5982 15.3961 37.3625 15.0262 37.979L20.1711 41.0659C21.0629 39.5796 21.5589 37.92 21.7158 36.1518L15.7393 35.6216ZM15.6084 34.1687C15.7336 34.6498 15.7772 35.139 15.7368 35.6506L21.7182 36.1228C21.8107 34.9522 21.7104 33.7923 21.415 32.6574L15.6084 34.1687ZM15.18 33.3413C15.3648 33.5412 15.5119 33.7929 15.606 34.1592L21.4175 32.667C21.0909 31.3953 20.4854 30.2414 19.5856 29.2681L15.18 33.3413ZM13.2517 32.486C14.4682 32.4347 15.6517 32.1625 16.7489 31.6139L14.0656 26.2474C13.818 26.3712 13.4801 26.471 12.9986 26.4914L13.2517 32.486ZM10.1508 32.4785L13.1148 32.4887L13.1354 26.4887L10.1714 26.4785L10.1508 32.4785ZM13.1015 30.0739L13.1029 30.0668L7.21938 28.8902L7.21795 28.8974L13.1015 30.0739ZM8.67643 32.4803L10.149 32.4856L10.1704 26.4856L8.69786 26.4804L8.67643 32.4803ZM7.30525 19.9324L5.73166 28.9655L11.6426 29.9952L13.2162 20.9621L7.30525 19.9324ZM14.4397 17.4639L10.2727 17.4473L10.2488 23.4472L14.4158 23.4638L14.4397 17.4639ZM18.2106 18.4648C17.0696 17.7712 15.7766 17.5107 14.5361 17.4658L14.3194 23.4619C14.9161 23.4835 15.1062 23.5992 15.0941 23.5919L18.2106 18.4648ZM20.6851 21.4845C20.2217 20.2048 19.3711 19.1565 18.1885 18.4515L15.1161 23.6052C15.1209 23.608 15.1159 23.6054 15.1048 23.596C15.0935 23.5863 15.0803 23.5733 15.0674 23.5576C15.0546 23.5419 15.046 23.5285 15.0413 23.5202C15.0368 23.5121 15.0384 23.5132 15.0435 23.5272L20.6851 21.4845ZM21.0818 25.0788C21.2029 23.8676 21.1206 22.6113 20.663 21.4256L15.0655 23.5861C15.0948 23.6621 15.1675 23.9221 15.1116 24.4818L21.0818 25.0788ZM19.7402 28.9934C20.5393 27.8039 20.9581 26.456 21.0846 25.0489L15.1087 24.5117C15.0581 25.0746 14.9125 25.4201 14.7598 25.6472L19.7402 28.9934ZM16.7332 31.6217C17.9626 31.0159 18.9836 30.1283 19.7462 28.9844L14.7538 25.6562C14.5867 25.9069 14.3792 26.0928 14.0812 26.2396L16.7332 31.6217ZM6.65862 44.067L11.4128 44.083L11.433 38.083L6.67882 38.067L6.65862 44.067ZM5.42832 30.7068L3.71323 40.5521L9.62421 41.5819L11.3393 31.7365L5.42832 30.7068ZM9.8125 28.2217H8.38381V34.2217H9.8125V28.2217ZM13.495 28.2383L9.82607 28.2217L9.79893 34.2216L13.4679 34.2383L13.495 28.2383ZM17.5056 29.6435C16.3509 28.6853 14.9627 28.3086 13.6313 28.242L13.3316 34.2345C13.5498 34.2454 13.6666 34.2766 13.7105 34.2915C13.7481 34.3042 13.723 34.3014 13.6741 34.2608L17.5056 29.6435ZM19.5735 32.8499C19.2199 31.5926 18.5301 30.4757 17.4816 29.6238L13.6981 34.2805C13.7121 34.2919 13.7528 34.3149 13.7976 34.4743L19.5735 32.8499ZM19.8541 36.1936C19.9642 35.0612 19.883 33.9329 19.5701 32.8379L13.801 34.4863C13.8866 34.7858 13.9271 35.1517 13.8822 35.613L19.8541 36.1936ZM18.5445 40.1464C19.2777 38.9528 19.6967 37.6279 19.8502 36.231L13.8861 35.5756C13.8183 36.193 13.6506 36.6501 13.4321 37.0059L18.5445 40.1464ZM15.6451 43.0076C16.8569 42.2979 17.8387 41.323 18.5608 40.1197L13.4158 37.0327C13.2081 37.3788 12.9504 37.6325 12.6127 37.8303L15.6451 43.0076ZM11.4229 44.083C12.8931 44.083 14.3237 43.7629 15.6173 43.0237L12.6405 37.8142C12.3846 37.9604 12.0112 38.083 11.4229 38.083V44.083ZM158.025 19.1257L159.685 29.9499L165.616 29.0403L163.956 18.2161L158.025 19.1257ZM156.01 21.6709H160.99V15.6709H156.01V21.6709ZM162.515 33.1374L158.929 17.9802L153.091 19.3616L156.677 34.5188L162.515 33.1374ZM160.974 43.3598L162.551 34.3451L156.641 33.3111L155.064 42.3258L160.974 43.3598ZM162.833 39.8428H158.019V45.8428H162.833V39.8428ZM161.337 33.7877L159.876 42.3375L165.79 43.3481L167.251 34.7983L161.337 33.7877ZM170.835 17.1571L161.704 32.7791L166.884 35.8068L176.015 20.1847L170.835 17.1571ZM168.079 21.6709H173.425V15.6709H168.079V21.6709ZM165.332 30.84L170.761 20.0158L165.398 17.326L159.969 28.1502L165.332 30.84ZM142.262 45.8428H143.889V39.8428H142.262V45.8428ZM139.489 45.8428H142.262V39.8428H139.489V45.8428ZM137.514 45.8428H139.489V39.8428H137.514V45.8428ZM138.741 18.1593L134.558 42.3311L140.47 43.3544L144.653 19.1825L138.741 18.1593ZM143.606 15.6709H141.697V21.6709H143.606V15.6709ZM146.445 15.6709H143.606V21.6709H146.445V15.6709ZM149.399 19.1946L149.401 19.183L143.489 18.1588L143.487 18.1704L149.399 19.1946ZM147.67 15.6875L146.456 15.6825L146.431 21.6825L147.645 21.6875L147.67 15.6875ZM152.814 16.9602C151.279 16.1094 149.544 15.7299 147.726 15.6883L147.589 21.6867C148.67 21.7115 149.403 21.9297 149.905 22.2078L152.814 16.9602ZM156.327 20.2421C155.442 18.8575 154.254 17.7585 152.814 16.9602L149.905 22.2078C150.501 22.5384 150.941 22.9557 151.272 23.4747L156.327 20.2421ZM158 24.5805C157.726 23.0058 157.172 21.5393 156.314 20.2214L151.286 23.4954C151.667 24.0811 151.943 24.7729 152.089 25.6109L158 24.5805ZM158.088 29.2696C158.288 27.6735 158.266 26.1059 158 24.5805L152.089 25.6109C152.244 26.4983 152.267 27.4651 152.134 28.5254L158.088 29.2696ZM157.532 33.0829L158.08 29.3309L152.143 28.464L151.595 32.216L157.532 33.0829ZM156.124 37.8734C156.79 36.3824 157.253 34.798 157.524 33.1314L151.602 32.1674C151.409 33.3563 151.087 34.4392 150.645 35.4274L156.124 37.8734ZM153.369 41.9867C154.52 40.7937 155.436 39.4145 156.124 37.8733L150.645 35.4275C150.227 36.3655 149.693 37.1555 149.05 37.8219L153.369 41.9867ZM149.234 44.8378C150.815 44.1627 152.207 43.2072 153.382 41.9733L149.038 37.8353C148.442 38.4607 147.732 38.9551 146.877 39.3204L149.234 44.8378ZM143.867 45.8427C145.768 45.8562 147.576 45.5463 149.234 44.8378L146.877 39.3204C146.1 39.6522 145.131 39.8515 143.91 39.8428L143.867 45.8427ZM142.928 41.8483L144.096 41.8583L144.147 35.8585L142.979 35.8486L142.928 41.8483ZM142.789 22.2039L139.997 38.3368L145.909 39.3601L148.701 23.2271L142.789 22.2039ZM147.452 19.7217L145.756 19.7155L145.734 25.7155L147.43 25.7217L147.452 19.7217ZM151.382 21.0267C150.214 20.0586 148.783 19.7693 147.552 19.7237L147.33 25.7196C147.587 25.7291 147.715 25.7605 147.749 25.771C147.779 25.7799 147.686 25.7568 147.552 25.6452L151.382 21.0267ZM153.3 24.0274C152.988 22.8241 152.326 21.767 151.32 20.977L147.613 25.6949C147.592 25.6781 147.557 25.6436 147.525 25.5947C147.495 25.547 147.489 25.5189 147.492 25.5332L153.3 24.0274ZM153.576 26.8797C153.621 25.9144 153.541 24.9561 153.3 24.0274L147.492 25.5332C147.562 25.7998 147.604 26.1474 147.582 26.5988L153.576 26.8797ZM153.373 29.2256C153.471 28.4488 153.539 27.6667 153.576 26.8797L147.582 26.5988C147.553 27.2284 147.499 27.852 147.42 28.4697L153.373 29.2256ZM152.818 33.0625L153.366 29.2774L147.427 28.4179L146.88 32.2031L152.818 33.0625ZM151.764 36.9903C152.281 35.7717 152.623 34.4499 152.82 33.0493L146.878 32.2163C146.742 33.1842 146.52 33.9874 146.239 34.6503L151.764 36.9903ZM149.003 40.4861C150.259 39.5885 151.182 38.389 151.771 36.9742L146.233 34.6665C146.047 35.111 145.808 35.3946 145.515 35.6037L149.003 40.4861ZM144.096 41.8583C145.809 41.8727 147.548 41.5254 149.003 40.4861L145.515 35.6037C145.421 35.6713 145.067 35.8662 144.146 35.8585L144.096 41.8583ZM127.302 39.8428H125.675V45.8428H127.302V39.8428ZM130.29 39.3204C129.513 39.6522 128.544 39.8515 127.323 39.8428L127.28 45.8427C129.181 45.8562 130.989 45.5463 132.647 44.8378L130.29 39.3204ZM132.451 37.8353C131.855 38.4607 131.145 38.9551 130.29 39.3204L132.647 44.8378C134.228 44.1627 135.62 43.2072 136.795 41.9733L132.451 37.8353ZM134.058 35.4274C133.64 36.3655 133.106 37.1555 132.464 37.8219L136.783 41.9867C137.933 40.7937 138.849 39.4145 139.537 37.8734L134.058 35.4274ZM135.016 32.1674C134.822 33.3563 134.5 34.4392 134.058 35.4274L139.537 37.8734C140.203 36.3824 140.666 34.798 140.938 33.1314L135.016 32.1674ZM135.556 28.464L135.008 32.216L140.945 33.0829L141.493 29.3309L135.556 28.464ZM135.503 25.6109C135.657 26.4983 135.68 27.4652 135.548 28.5254L141.501 29.2696C141.701 27.6735 141.679 26.1059 141.413 24.5805L135.503 25.6109ZM134.699 23.4954C135.08 24.0811 135.356 24.7729 135.503 25.6109L141.413 24.5805C141.139 23.0058 140.585 21.5393 139.727 20.2214L134.699 23.4954ZM133.318 22.2078C133.914 22.5384 134.354 22.9557 134.686 23.4747L139.74 20.2421C138.855 18.8575 137.667 17.7585 136.227 16.9602L133.318 22.2078ZM131.002 21.6867C132.083 21.7115 132.816 21.9297 133.318 22.2078L136.227 16.9602C134.692 16.1094 132.957 15.7299 131.139 15.6883L131.002 21.6867ZM129.844 21.6825L131.058 21.6875L131.083 15.6875L129.869 15.6825L129.844 21.6825ZM126.902 18.1588L126.9 18.1704L132.812 19.1946L132.814 19.183L126.902 18.1588ZM127.02 21.6709H129.858V15.6709H127.02V21.6709ZM125.11 21.6709H127.02V15.6709H125.11V21.6709ZM123.883 43.3544L128.066 19.1825L122.154 18.1593L117.971 42.3311L123.883 43.3544ZM122.902 39.8428H120.927V45.8428H122.902V39.8428ZM125.675 39.8428H122.902V45.8428H125.675V39.8428ZM127.56 35.8585L126.392 35.8486L126.341 41.8483L127.509 41.8583L127.56 35.8585ZM128.928 35.6037C128.834 35.6713 128.48 35.8662 127.559 35.8585L127.509 41.8583C129.223 41.8727 130.961 41.5254 132.416 40.4861L128.928 35.6037ZM129.646 34.6665C129.461 35.111 129.221 35.3946 128.928 35.6037L132.416 40.4861C133.672 39.5885 134.595 38.389 135.184 36.9742L129.646 34.6665ZM130.291 32.2163C130.155 33.1842 129.933 33.9874 129.653 34.6503L135.177 36.9903C135.694 35.7717 136.036 34.4499 136.233 33.0493L130.291 32.2163ZM130.841 28.4179L130.293 32.2031L136.231 33.0625L136.779 29.2774L130.841 28.4179ZM130.995 26.5988C130.966 27.2284 130.912 27.852 130.833 28.4697L136.786 29.2256C136.884 28.4488 136.952 27.6667 136.989 26.8797L130.995 26.5988ZM130.906 25.5332C130.975 25.7998 131.017 26.1474 130.995 26.5988L136.989 26.8797C137.034 25.9144 136.954 24.9561 136.714 24.0274L130.906 25.5332ZM131.026 25.6949C131.005 25.6781 130.97 25.6436 130.938 25.5947C130.908 25.547 130.902 25.5189 130.906 25.5332L136.714 24.0274C136.402 22.8241 135.739 21.767 134.733 20.977L131.026 25.6949ZM130.743 25.7196C131 25.7291 131.128 25.7605 131.163 25.771C131.192 25.7799 131.099 25.7568 130.965 25.6452L134.795 21.0267C133.628 20.0586 132.196 19.7693 130.966 19.7237L130.743 25.7196ZM129.147 25.7155L130.844 25.7217L130.865 19.7217L129.169 19.7155L129.147 25.7155ZM129.322 39.3601L132.114 23.2271L126.202 22.2039L123.41 38.3368L129.322 39.3601ZM123.564 15.6709H118.833V21.6709H123.564V15.6709ZM123.7 35.7591L126.522 19.1742L120.607 18.1676L117.785 34.7526L123.7 35.7591ZM121.837 41.0768C122.825 39.4689 123.431 37.6489 123.712 35.6801L117.772 34.8316C117.589 36.1167 117.22 37.13 116.725 37.9349L121.837 41.0768ZM117.689 44.9257C119.413 44.033 120.806 42.7386 121.83 41.0874L116.732 37.9244C116.273 38.6637 115.685 39.2066 114.93 39.5977L117.689 44.9257ZM111.871 46.1911C113.953 46.2184 115.927 45.838 117.689 44.9257L114.93 39.5977C114.213 39.9692 113.254 40.2087 111.949 40.1917L111.871 46.1911ZM106.345 44.6743C107.966 45.7093 109.861 46.1494 111.848 46.1908L111.973 40.1921C110.772 40.167 110.032 39.9098 109.573 39.6167L106.345 44.6743ZM102.912 40.4781C103.602 42.2196 104.753 43.6416 106.326 44.6621L109.592 39.629C109.084 39.2992 108.73 38.8729 108.49 38.268L102.912 40.4781ZM102.325 34.9108C102.091 36.8354 102.235 38.7117 102.9 40.4465L108.503 38.2996C108.26 37.6659 108.138 36.8084 108.281 35.6341L102.325 34.9108ZM105.167 18.1681L102.345 34.7697L108.26 35.7752L111.083 19.1737L105.167 18.1681ZM112.84 15.6709H108.125V21.6709H112.84V15.6709ZM113.026 35.7827L115.799 19.1646L109.881 18.1772L107.108 34.7954L113.026 35.7827ZM113.02 36.8779C112.988 36.5444 112.99 36.1326 113.048 35.6311L107.087 34.9471C106.99 35.7958 106.969 36.6346 107.048 37.4522L113.02 36.8779ZM112.881 36.5913C112.933 36.6498 112.972 36.7143 112.996 36.7712C113.019 36.825 113.017 36.846 113.014 36.8145L107.055 37.5156C107.183 38.603 107.594 39.6678 108.382 40.561L112.881 36.5913ZM112.41 36.1584C112.229 36.1533 112.207 36.1308 112.286 36.1578C112.378 36.1893 112.597 36.2867 112.818 36.5221L108.445 40.6302C109.577 41.8353 111.097 42.1238 112.241 42.156L112.41 36.1584ZM112.695 36.1962C112.778 36.1423 112.825 36.1356 112.797 36.1421C112.762 36.1498 112.653 36.1679 112.445 36.1596L112.205 42.1548C113.434 42.204 114.782 41.9986 115.973 41.2218L112.695 36.1962ZM112.719 36.1389C112.707 36.1683 112.697 36.1866 112.691 36.1963C112.685 36.2058 112.683 36.2086 112.684 36.2071C112.685 36.2055 112.688 36.2023 112.692 36.199C112.696 36.1956 112.697 36.1947 112.695 36.1961L115.973 41.2218C117.015 40.5423 117.769 39.5952 118.24 38.49L112.719 36.1389ZM113.084 34.803C112.995 35.3453 112.865 35.7912 112.712 36.157L118.247 38.4719C118.603 37.6203 118.85 36.7159 119.004 35.7751L113.084 34.803ZM115.874 18.1743L113.085 34.7925L119.003 35.7856L121.792 19.1675L115.874 18.1743ZM100.831 27.5296C100.689 27.5988 100.539 27.6615 100.381 27.7172L102.378 33.3754C102.748 33.2446 103.11 33.0935 103.462 32.9216L100.831 27.5296ZM101.913 26.5949C101.651 26.9851 101.306 27.2945 100.818 27.536L103.475 32.9152C104.868 32.227 106.028 31.2303 106.895 29.9383L101.913 26.5949ZM102.408 24.9591C102.351 25.7359 102.153 26.2404 101.918 26.5876L106.89 29.9456C107.807 28.5884 108.272 27.0343 108.392 25.3983L102.408 24.9591ZM102.243 23.4098C102.359 23.7189 102.454 24.2193 102.406 24.9954L108.395 25.362C108.48 23.9689 108.342 22.5877 107.861 21.3031L102.243 23.4098ZM101.708 22.5693C101.924 22.766 102.1 23.0155 102.23 23.3754L107.873 21.3375C107.428 20.1037 106.718 19.014 105.74 18.126L101.708 22.5693ZM100.662 21.9965C101.129 22.1441 101.459 22.344 101.708 22.5693L105.74 18.126C104.793 17.2667 103.684 16.6587 102.469 16.275L100.662 21.9965ZM98.7278 21.6868C99.4936 21.7034 100.114 21.8142 100.617 21.9818L102.514 16.2897C101.357 15.9039 100.129 15.7158 98.8582 15.6882L98.7278 21.6868ZM91.7966 21.6709L98.7858 21.6875L98.8001 15.6875L91.8108 15.6709L91.7966 21.6709ZM90.5762 43.3544L94.7598 19.1825L88.8477 18.1593L84.6641 42.3311L90.5762 43.3544ZM89.3135 39.8428H87.6201V45.8428H89.3135V39.8428ZM92.3682 39.8428H89.3135V45.8428H92.3682V39.8428ZM95.6221 39.8428H92.3682V45.8428H95.6221V39.8428ZM98.4884 39.3191C97.7475 39.659 96.8282 39.8598 95.6652 39.8431L95.5789 45.8425C97.4927 45.87 99.3182 45.5396 100.99 44.7727L98.4884 39.3191ZM100.136 37.9188C99.73 38.5243 99.1955 38.9882 98.4679 39.3286L101.011 44.7632C102.696 43.9747 104.087 42.8005 105.12 41.2589L100.136 37.9188ZM100.879 35.4147C100.806 36.5636 100.517 37.3524 100.14 37.9131L105.116 41.2647C106.2 39.656 106.741 37.7887 106.867 35.7943L100.879 35.4147ZM100.736 33.9008C100.853 34.2256 100.933 34.6963 100.882 35.3769L106.864 35.8321C106.968 34.4762 106.838 33.1318 106.379 31.8629L100.736 33.9008ZM100.382 33.4111C100.534 33.5198 100.646 33.6524 100.736 33.9008L106.379 31.8629C105.893 30.5175 105.054 29.3774 103.877 28.5342L100.382 33.4111ZM100.214 33.3105C100.277 33.3371 100.314 33.3611 100.336 33.3775L103.923 28.5678C103.493 28.2469 103.03 27.9866 102.545 27.7821L100.214 33.3105ZM97.4181 25.7493C97.4055 25.7556 97.3327 25.7899 97.1565 25.8065L97.7193 31.7801C98.5297 31.7037 99.3381 31.4975 100.101 31.1159L97.4181 25.7493ZM97.4315 25.7312C97.4258 25.7401 97.4224 25.7443 97.4215 25.7453C97.4207 25.7462 97.421 25.7459 97.4218 25.7451C97.4226 25.7444 97.4221 25.745 97.4189 25.7472C97.4157 25.7494 97.4081 25.7543 97.3944 25.7613L100.125 31.1039C101.089 30.6112 101.89 29.8921 102.479 28.9758L97.4315 25.7312ZM97.5799 25.2737C97.5417 25.556 97.4749 25.6655 97.4589 25.6894L102.451 29.0176C103.055 28.1119 103.387 27.1035 103.526 26.0798L97.5799 25.2737ZM97.6024 24.7427C97.6064 24.7646 97.6282 24.9223 97.5806 25.2688L103.525 26.0847C103.632 25.3023 103.654 24.4749 103.503 23.6557L97.6024 24.7427ZM98.0193 25.4311C97.9104 25.3377 97.807 25.2152 97.7269 25.0709C97.6482 24.9293 97.6137 24.8062 97.5999 24.7292L103.506 23.6692C103.316 22.6115 102.799 21.6258 101.924 20.8755L98.0193 25.4311ZM98.4847 25.7197C98.5889 25.7235 98.5808 25.735 98.498 25.709C98.4083 25.6809 98.2232 25.6058 98.0193 25.4311L101.924 20.8755C100.899 19.9971 99.6694 19.7588 98.7028 19.7237L98.4847 25.7197ZM95.8363 25.705L98.5756 25.7216L98.6119 19.7217L95.8727 19.7051L95.8363 25.705ZM97.7581 29.2959L98.8105 23.2168L92.8985 22.1933L91.846 28.2724L97.7581 29.2959ZM97.4483 25.7933L94.8124 25.7842L94.7917 31.7841L97.4276 31.7933L97.4483 25.7933ZM96.016 39.3586L97.1487 32.8159L91.2366 31.7924L90.1039 38.3351L96.016 39.3586ZM95.8503 35.8584L93.0724 35.8469L93.0475 41.8468L95.8254 41.8584L95.8503 35.8584ZM95.9522 35.8428C95.9803 35.8253 95.9902 35.8257 95.9651 35.8326C95.9374 35.8402 95.8662 35.8558 95.7379 35.8601L95.9378 41.8567C97.0132 41.8209 98.1132 41.5616 99.1103 40.9443L95.9522 35.8428ZM96.0518 35.7494C96.0267 35.7936 96.0126 35.806 95.979 35.8264L99.0835 40.9608C100.002 40.4056 100.74 39.6432 101.269 38.7135L96.0518 35.7494ZM96.2304 35.189C96.197 35.4607 96.1305 35.6153 96.0774 35.7053L101.243 38.7576C101.765 37.8736 102.064 36.9104 102.186 35.9204L96.2304 35.189ZM96.2651 34.3357C96.2837 34.6022 96.2746 34.8692 96.2368 35.1401L102.179 35.9693C102.274 35.2884 102.298 34.6036 102.251 33.9182L96.2651 34.3357ZM96.4402 34.6725C96.3643 34.5691 96.3157 34.4656 96.2879 34.3801C96.2614 34.2982 96.2605 34.2532 96.2609 34.2632L102.255 33.9907C102.211 33.0236 101.932 32.0156 101.279 31.1243L96.4402 34.6725ZM97.3885 35.3089C97.4184 35.3111 97.2961 35.3074 97.0968 35.2144C96.8762 35.1114 96.6183 34.9241 96.4129 34.6347L101.306 31.1622C100.363 29.8341 98.9457 29.4093 97.84 29.3259L97.3885 35.3089ZM94.1811 35.3042L97.6027 35.3174L97.6258 29.3174L94.2042 29.3042L94.1811 35.3042Z" fill="white" mask="url(#path-1-outside-1_154_67)"/>
<path fill-rule="evenodd" clip-rule="evenodd" d="M26.1895 14.3196L26.1973 14.269L34.4518 12.4297L26.6871 15.3769C27.6315 16.6305 29.0063 17.5023 30.5528 17.8285C33.7634 18.535 36.9716 17.568 39.3476 15.4056C39.8019 14.9842 40.214 14.5207 40.5783 14.0214C40.6238 13.9603 40.6809 13.8849 40.7466 13.7979C41.3354 13.0189 42.6193 11.32 42.5288 10.815C42.3815 9.99712 38.7632 8.89647 37.9335 8.65451C33.6251 7.38263 28.14 7.28195 26.1672 12.1982C26.0724 12.4383 26.016 12.6917 26 12.9493L25.7282 13.0725L25.5205 12.869C25.5928 12.6993 25.6417 12.5208 25.666 12.3382C26.2279 7.922 22.1506 5.77702 18.4643 4.96488C17.7551 4.80955 14.6416 4.15543 14.2007 4.69765C13.9296 5.02684 14.1715 6.76049 14.2864 7.58381L14.2864 7.58382C14.3007 7.68595 14.313 7.77407 14.3221 7.84377C14.3865 8.35818 14.5001 8.86563 14.6613 9.35933C15.0652 10.6208 15.7752 11.767 16.7295 12.6982C17.6838 13.6293 18.8534 14.3172 20.1365 14.7017C21.4106 15.0889 22.7822 15.0037 23.9929 14.462L19.4861 9.15682L24.5359 13.6106L24.5299 13.6497C24.3773 14.6494 24.1908 15.7149 24.0029 16.7886C23.7966 17.9672 23.5886 19.1557 23.4217 20.2781L19.4553 43.0149H20.8166H21.3478H30.9933L31.3254 41.2385H21.6565L25.1408 21.1866C25.2556 20.5654 25.3656 19.9364 25.4767 19.2536L25.548 18.843H25.5426C25.738 17.6087 25.9401 16.1824 26.1802 14.3182L26.1895 14.3196ZM47.8844 33.3798L48.7145 28.1503C48.8584 26.9993 48.875 25.8538 48.7643 24.7138C48.6647 23.5738 48.388 22.5279 47.9342 21.5761C47.4805 20.6243 46.8219 19.8551 45.9587 19.2685C45.0954 18.6819 43.9886 18.372 42.6383 18.3388C41.2217 18.3056 39.9821 18.5602 38.9196 19.1025C37.8682 19.6448 36.9717 20.3919 36.2301 21.3437C35.4997 22.2844 34.9075 23.3469 34.4538 24.5312C34.0111 25.7154 33.6956 26.9163 33.5075 28.1337L32.6774 33.3798C32.5335 34.5198 32.5169 35.6598 32.6276 36.7997C32.7383 37.9397 33.0205 38.9912 33.4743 39.954C33.9281 40.9059 34.5811 41.6751 35.4333 42.2617C36.2965 42.8483 37.3978 43.1581 38.737 43.1913C40.1758 43.2246 41.4264 42.97 42.4889 42.4277C43.5514 41.8854 44.4479 41.1438 45.1784 40.2031C45.9088 39.2623 46.4954 38.1998 46.9381 37.0156C47.3809 35.8313 47.6963 34.6194 47.8844 33.3798ZM46.8385 28.0673L46.0085 33.3798C45.8646 34.3759 45.6266 35.3554 45.2946 36.3183C44.9736 37.2701 44.5309 38.1389 43.9665 38.9247C43.402 39.6995 42.7047 40.3137 41.8747 40.7675C41.0446 41.2102 40.0485 41.415 38.8864 41.3818C37.8128 41.3486 36.9551 41.0774 36.3131 40.5683C35.6823 40.0592 35.223 39.4117 34.9352 38.6259C34.6585 37.829 34.498 36.9768 34.4538 36.0693C34.4206 35.1507 34.4593 34.2652 34.57 33.413L35.4001 28.1171C35.5439 27.1321 35.7819 26.1637 36.1139 25.2119C36.446 24.249 36.8942 23.3802 37.4587 22.6054C38.0231 21.8307 38.7204 21.2219 39.5504 20.7792C40.3805 20.3255 41.3711 20.1152 42.5221 20.1484C43.6068 20.1816 44.4645 20.4472 45.0954 20.9453C45.7373 21.4433 46.1966 22.0852 46.4733 22.871C46.7611 23.6458 46.9215 24.4925 46.9547 25.4111C46.9879 26.3297 46.9492 27.2151 46.8385 28.0673ZM65.7917 28.1503L64.9616 33.3798C64.7734 34.6194 64.458 35.8313 64.0153 37.0156C63.5726 38.1998 62.986 39.2623 62.2555 40.2031C61.5251 41.1438 60.6286 41.8854 59.5661 42.4277C58.5036 42.97 57.2529 43.2246 55.8141 43.1913C54.4749 43.1581 53.3737 42.8483 52.5104 42.2617C51.6582 41.6751 51.0052 40.9059 50.5514 39.954C50.0977 38.9912 49.8154 37.9397 49.7048 36.7997C49.5941 35.6598 49.6107 34.5198 49.7546 33.3798L50.5846 28.1337C50.7728 26.9163 51.0882 25.7154 51.5309 24.5312C51.9847 23.3469 52.5768 22.2844 53.3073 21.3437C54.0488 20.3919 54.9453 19.6448 55.9967 19.1025C57.0592 18.5602 58.2988 18.3056 59.7155 18.3388C61.0658 18.372 62.1725 18.6819 63.0358 19.2685C63.8991 19.8551 64.5576 20.6243 65.0114 21.5761C65.4652 22.5279 65.7419 23.5738 65.8415 24.7138C65.9521 25.8538 65.9355 26.9993 65.7917 28.1503ZM63.0856 33.3798L63.9157 28.0673C64.0264 27.2151 64.0651 26.3297 64.0319 25.4111C63.9987 24.4925 63.8382 23.6458 63.5505 22.871C63.2738 22.0852 62.8144 21.4433 62.1725 20.9453C61.5417 20.4472 60.6839 20.1816 59.5993 20.1484C58.4482 20.1152 57.4577 20.3255 56.6276 20.7792C55.7975 21.2219 55.1003 21.8307 54.5358 22.6054C53.9714 23.3802 53.5231 24.249 53.1911 25.2119C52.859 26.1637 52.6211 27.1321 52.4772 28.1171L51.6471 33.413C51.5365 34.2652 51.4977 35.1507 51.5309 36.0693C51.5752 36.9768 51.7357 37.829 52.0124 38.6259C52.3001 39.4117 52.7594 40.0592 53.3903 40.5683C54.0322 41.0774 54.89 41.3486 55.9635 41.3818C57.1256 41.415 58.1217 41.2102 58.9518 40.7675C59.7819 40.3137 60.4792 39.6995 61.0436 38.9247C61.6081 38.1389 62.0508 37.2701 62.3717 36.3183C62.7038 35.3554 62.9417 34.3759 63.0856 33.3798ZM71.6294 18.6709H72.3931L75.8296 39.8545L86.604 18.6709H87.4507H88.5464H89.1108L84.9106 42.8428H83.0347L84.8774 32.251L86.8104 22.0501L76.1284 42.8428H74.6675L71.1342 21.8452L69.4878 32.4004L67.6616 42.8428H65.7856L70.0024 18.6709H70.6001H71.6294ZM17.3828 31.3047C16.9805 30.8521 16.4703 30.5201 15.8523 30.3087C16.3651 30.1337 16.8421 29.9012 17.2832 29.6113C18.0579 29.0911 18.6777 28.4271 19.1426 27.6191C19.6185 26.8112 19.9062 25.8981 20.0059 24.8799C20.0723 23.9281 20.0003 23.0758 19.79 22.3232C19.5908 21.5596 19.2533 20.9121 18.7773 20.3809C18.3125 19.8496 17.7148 19.4401 16.9844 19.1523C16.265 18.8646 15.4349 18.7096 14.4941 18.6875L8.68359 18.6709L4.4834 42.8428H5.18066H6.35938H11.3398C12.7454 42.8538 13.9795 42.5661 15.042 41.9795C16.1156 41.3929 16.9678 40.5739 17.5986 39.5225C18.2295 38.471 18.6058 37.2591 18.7275 35.8867C18.7939 35.0456 18.722 34.221 18.5117 33.4131C18.3014 32.5941 17.9251 31.8913 17.3828 31.3047ZM15.4072 28.9307C14.7349 29.2668 13.9742 29.4529 13.1251 29.4887L10.1611 29.4785L10.1597 29.4856L8.68715 29.4804L10.2607 20.4473L14.4277 20.4639C15.3464 20.4971 16.0879 20.6852 16.6523 21.0283C17.2279 21.3714 17.6318 21.8639 17.8643 22.5059C18.1077 23.1367 18.1852 23.8949 18.0967 24.7803C18.0081 25.7653 17.7259 26.612 17.25 27.3203C16.7852 28.0176 16.1709 28.5544 15.4072 28.9307ZM11.4229 41.083L6.66872 41.067L8.38381 31.2217H9.8125L13.4814 31.2383C14.3669 31.2826 15.0697 31.5205 15.5898 31.9521C16.1211 32.3838 16.4863 32.9538 16.6855 33.6621C16.8848 34.3594 16.9456 35.1064 16.8682 35.9033C16.7575 36.9105 16.4642 37.8014 15.9883 38.5762C15.5234 39.3509 14.9036 39.9652 14.1289 40.4189C13.3542 40.8617 12.4521 41.083 11.4229 41.083Z" fill="#6D7887"/>
<path d="M160.99 18.6709L162.651 29.4951L168.079 18.6709H173.425L164.294 34.293L162.833 42.8428H158.019L159.596 33.8281L156.01 18.6709H160.99Z" fill="#FF8C7D"/>
<path d="M143.889 42.8428H139.489L140.22 38.8252L144.121 38.8584C145.438 38.8695 146.484 38.5983 147.259 38.0449C148.034 37.4915 148.615 36.75 149.002 35.8203C149.4 34.8796 149.683 33.8171 149.849 32.6328L150.396 28.8477C150.485 28.1504 150.546 27.4476 150.579 26.7393C150.612 26.0309 150.551 25.3779 150.396 24.7803C150.242 24.1826 149.932 23.7012 149.467 23.3359C149.013 22.9596 148.338 22.7549 147.441 22.7217L142.893 22.7051L143.606 18.6709L147.657 18.6875C149.107 18.7207 150.341 19.0195 151.359 19.584C152.378 20.1484 153.191 20.9066 153.8 21.8584C154.42 22.8102 154.835 23.8893 155.045 25.0957C155.255 26.3021 155.277 27.5693 155.111 28.8975L154.563 32.6494C154.331 34.0771 153.938 35.4108 153.385 36.6504C152.831 37.89 152.106 38.9746 151.21 39.9043C150.325 40.834 149.273 41.5589 148.056 42.0791C146.838 42.5993 145.449 42.8538 143.889 42.8428ZM146.445 18.6709L142.262 42.8428H137.514L141.697 18.6709H146.445Z" fill="#FF8C7D"/>
<path d="M127.302 42.8428H122.902L123.633 38.8252L127.534 38.8584C128.851 38.8695 129.897 38.5983 130.672 38.0449C131.447 37.4915 132.028 36.75 132.415 35.8203C132.813 34.8796 133.096 33.8171 133.262 32.6328L133.81 28.8477C133.898 28.1504 133.959 27.4476 133.992 26.7393C134.025 26.0309 133.965 25.3779 133.81 24.7803C133.655 24.1826 133.345 23.7012 132.88 23.3359C132.426 22.9596 131.751 22.7549 130.854 22.7217L126.306 22.7051L127.02 18.6709L131.07 18.6875C132.52 18.7207 133.754 19.0195 134.772 19.584C135.791 20.1484 136.604 20.9066 137.213 21.8584C137.833 22.8102 138.248 23.8893 138.458 25.0957C138.668 26.3021 138.69 27.5693 138.524 28.8975L137.977 32.6494C137.744 34.0771 137.351 35.4108 136.798 36.6504C136.244 37.89 135.52 38.9746 134.623 39.9043C133.738 40.834 132.686 41.5589 131.469 42.0791C130.251 42.5993 128.862 42.8538 127.302 42.8428ZM129.858 18.6709L125.675 42.8428H120.927L125.11 18.6709H129.858Z" fill="#FF8C7D"/>
<path d="M118.833 18.6709H123.564L120.742 35.2559C120.51 36.8828 120.023 38.2995 119.281 39.5059C118.54 40.7012 117.549 41.6198 116.31 42.2617C115.07 42.9036 113.603 43.2135 111.91 43.1914C110.316 43.1582 108.999 42.8096 107.959 42.1455C106.919 41.4704 106.166 40.5462 105.701 39.373C105.247 38.1888 105.115 36.8219 105.303 35.2725L108.125 18.6709H112.84L110.067 35.2891C109.99 35.9642 109.979 36.5895 110.034 37.165C110.101 37.7295 110.3 38.1999 110.632 38.5762C110.975 38.9414 111.539 39.1351 112.325 39.1572C113.155 39.1904 113.825 39.041 114.334 38.709C114.843 38.377 115.225 37.9121 115.479 37.3145C115.734 36.7057 115.922 36.0306 116.044 35.2891L118.833 18.6709Z" fill="#FF8C7D"/>
<path d="M97.5645 32.3008H92.5674L93.165 28.7812L97.0498 28.8145C97.7028 28.8034 98.2728 28.6761 98.7598 28.4326C99.2578 28.1781 99.6562 27.8184 99.9551 27.3535C100.265 26.8887 100.464 26.3298 100.553 25.6768C100.63 25.1123 100.63 24.6198 100.553 24.1992C100.475 23.7676 100.282 23.4189 99.9717 23.1533C99.6618 22.8877 99.2025 22.7438 98.5938 22.7217L95.8545 22.7051L92.3682 42.8428H87.6201L91.8037 18.6709L98.793 18.6875C99.8112 18.7096 100.735 18.859 101.565 19.1357C102.407 19.4014 103.126 19.8053 103.724 20.3477C104.321 20.89 104.764 21.5596 105.052 22.3564C105.351 23.1533 105.467 24.0941 105.4 25.1787C105.312 26.3851 104.98 27.4144 104.404 28.2666C103.84 29.1077 103.087 29.7607 102.146 30.2256C101.217 30.6794 100.165 30.9395 98.9922 31.0059L97.5645 32.3008ZM95.6221 42.8428H89.3135L91.8369 38.8418L95.8379 38.8584C96.502 38.8363 97.0664 38.6813 97.5312 38.3936C98.0072 38.1058 98.3835 37.7184 98.6602 37.2314C98.9479 36.7445 99.1305 36.1855 99.208 35.5547C99.2744 35.0788 99.291 34.6029 99.2578 34.127C99.2357 33.64 99.1029 33.2305 98.8594 32.8984C98.6159 32.5553 98.2008 32.3617 97.6143 32.3174L93.3145 32.3008L93.9619 28.7812L98.7598 28.7979L99.5732 30.1758C100.625 30.2201 101.477 30.4857 102.13 30.9727C102.794 31.4486 103.27 32.085 103.558 32.8818C103.845 33.6787 103.951 34.5863 103.873 35.6045C103.773 37.1761 103.358 38.5042 102.628 39.5889C101.909 40.6624 100.946 41.4814 99.7393 42.0459C98.5329 42.5993 97.1605 42.8649 95.6221 42.8428Z" fill="#FF8C7D"/>
</g>
<defs>
<filter id="filter0_d_154_67" x="0.483398" y="0.486328" width="182.942" height="52.708" filterUnits="userSpaceOnUse" color-interpolation-filters="sRGB">
<feFlood flood-opacity="0" result="BackgroundImageFix"/>
<feColorMatrix in="SourceAlpha" type="matrix" values="0 0 0 0 0 0 0 0 0 0 0 0 0 0 0 0 0 0 127 0" result="hardAlpha"/>
<feOffset dx="3" dy="3"/>
<feGaussianBlur stdDeviation="2"/>
<feComposite in2="hardAlpha" operator="out"/>
<feColorMatrix type="matrix" values="0 0 0 0 0 0 0 0 0 0 0 0 0 0 0 0 0 0 0.25 0"/>
<feBlend mode="normal" in2="BackgroundImageFix" result="effect1_dropShadow_154_67"/>
<feBlend mode="normal" in="SourceGraphic" in2="effect1_dropShadow_154_67" result="shape"/>
</filter>
</defs>
</svg>
