<svg width="169" height="40" viewBox="0 0 169 40" fill="none" xmlns="http://www.w3.org/2000/svg">
<path d="M66.146 14.8281H67.939L71.3755 36.0117L82.1499 14.8281H84.0923L71.6743 39H70.2134L66.146 14.8281ZM65.5483 14.8281H67.1753L65.0337 28.5576L63.2075 39H61.3315L65.5483 14.8281ZM82.9966 14.8281H84.6567L80.4565 39H78.5806L80.4233 28.4082L82.9966 14.8281Z" fill="black"/>
<path d="M61.3376 24.3076L60.5075 29.5371C60.3193 30.7766 60.0039 31.9885 59.5612 33.1728C59.1185 34.357 58.5319 35.4195 57.8014 36.3603C57.071 37.301 56.1745 38.0426 55.112 38.5849C54.0495 39.1272 52.7988 39.3818 51.36 39.3486C50.0208 39.3154 48.9196 39.0055 48.0563 38.4189C47.2041 37.8323 46.5511 37.0631 46.0973 36.1113C45.6436 35.1484 45.3613 34.0969 45.2506 32.957C45.14 31.817 45.1566 30.677 45.3005 29.5371L46.1305 24.291C46.3187 23.0735 46.6341 21.8727 47.0768 20.6884C47.5306 19.5042 48.1227 18.4417 48.8532 17.5009C49.5947 16.5491 50.4912 15.802 51.5426 15.2597C52.6051 14.7174 53.8447 14.4628 55.2614 14.496C56.6117 14.5292 57.7184 14.8391 58.5817 15.4257C59.445 16.0123 60.1035 16.7815 60.5573 17.7333C61.0111 18.6852 61.2878 19.7311 61.3874 20.871C61.498 22.011 61.4814 23.1565 61.3376 24.3076ZM58.6315 29.5371L59.4616 24.2246C59.5723 23.3723 59.611 22.4869 59.5778 21.5683C59.5446 20.6497 59.3841 19.803 59.0964 19.0283C58.8197 18.2425 58.3603 17.6005 57.7184 17.1025C57.0876 16.6044 56.2298 16.3388 55.1452 16.3056C53.9941 16.2724 53.0036 16.4827 52.1735 16.9365C51.3434 17.3792 50.6462 17.9879 50.0817 18.7626C49.5172 19.5374 49.069 20.4062 48.737 21.3691C48.4049 22.3209 48.167 23.2893 48.0231 24.2744L47.193 29.5703C47.0824 30.4225 47.0436 31.3079 47.0768 32.2265C47.1211 33.1341 47.2816 33.9863 47.5583 34.7831C47.846 35.569 48.3053 36.2164 48.9362 36.7255C49.5781 37.2346 50.4359 37.5058 51.5094 37.539C52.6715 37.5722 53.6676 37.3675 54.4977 36.9247C55.3278 36.471 56.0251 35.8567 56.5895 35.082C57.154 34.2962 57.5967 33.4274 57.9176 32.4755C58.2497 31.5126 58.4876 30.5331 58.6315 29.5371Z" fill="black"/>
<path d="M44.2604 24.3076L43.4303 29.5371C43.2422 30.7766 42.9268 31.9885 42.484 33.1728C42.0413 34.357 41.4547 35.4195 40.7243 36.3603C39.9938 37.301 39.0973 38.0426 38.0348 38.5849C36.9723 39.1272 35.7217 39.3818 34.2829 39.3486C32.9437 39.3154 31.8424 39.0055 30.9792 38.4189C30.1269 37.8323 29.474 37.0631 29.0202 36.1113C28.5664 35.1484 28.2842 34.0969 28.1735 32.957C28.0628 31.817 28.0794 30.677 28.2233 29.5371L29.0534 24.291C29.2415 23.0735 29.557 21.8727 29.9997 20.6884C30.4534 19.5042 31.0456 18.4417 31.776 17.5009C32.5176 16.5491 33.4141 15.802 34.4655 15.2597C35.528 14.7174 36.7676 14.4628 38.1842 14.496C39.5345 14.5292 40.6413 14.8391 41.5046 15.4257C42.3678 16.0123 43.0264 16.7815 43.4801 17.7333C43.9339 18.6852 44.2106 19.7311 44.3102 20.871C44.4209 22.011 44.4043 23.1565 44.2604 24.3076ZM41.5544 29.5371L42.3844 24.2246C42.4951 23.3723 42.5338 22.4869 42.5006 21.5683C42.4674 20.6497 42.307 19.803 42.0192 19.0283C41.7425 18.2425 41.2832 17.6005 40.6413 17.1025C40.0104 16.6044 39.1527 16.3388 38.068 16.3056C36.917 16.2724 35.9264 16.4827 35.0963 16.9365C34.2663 17.3792 33.569 17.9879 33.0046 18.7626C32.4401 19.5374 31.9919 20.4062 31.6598 21.3691C31.3278 22.3209 31.0898 23.2893 30.946 24.2744L30.1159 29.5703C30.0052 30.4225 29.9665 31.3079 29.9997 32.2265C30.0439 33.1341 30.2044 33.9863 30.4811 34.7831C30.7689 35.569 31.2282 36.2164 31.859 36.7255C32.501 37.2346 33.3587 37.5058 34.4323 37.539C35.5944 37.5722 36.5905 37.3675 37.4206 36.9247C38.2506 36.471 38.9479 35.8567 39.5124 35.082C40.0768 34.2962 40.5195 33.4274 40.8405 32.4755C41.1725 31.5126 41.4105 30.5331 41.5544 29.5371Z" fill="black"/>
<path d="M9.02734 27.3789H3.43262L3.71484 25.6357L8.36328 25.6523C9.33724 25.6523 10.2005 25.4642 10.9531 25.0879C11.7168 24.7116 12.3311 24.1748 12.7959 23.4775C13.2718 22.7692 13.554 21.9225 13.6426 20.9375C13.7311 20.0521 13.6536 19.2939 13.4102 18.6631C13.1777 18.0212 12.7738 17.5286 12.1982 17.1855C11.6338 16.8424 10.8923 16.6543 9.97363 16.6211L5.80664 16.6045L1.90527 39H0.0292969L4.22949 14.8281L10.04 14.8447C10.9808 14.8669 11.8109 15.0218 12.5303 15.3096C13.2607 15.5973 13.8584 16.0068 14.3232 16.5381C14.7992 17.0693 15.1367 17.7168 15.3359 18.4805C15.5462 19.2331 15.6182 20.0853 15.5518 21.0371C15.4521 22.0553 15.1644 22.9684 14.6885 23.7764C14.2236 24.5843 13.6038 25.2484 12.8291 25.7686C12.0544 26.2777 11.1689 26.6097 10.1729 26.7646L9.02734 27.3789ZM6.88574 39H0.726562L2.03809 37.2236L6.96875 37.2402C7.99805 37.2402 8.90007 37.0189 9.6748 36.5762C10.4495 36.1224 11.0693 35.5081 11.5342 34.7334C12.0101 33.9587 12.3034 33.0677 12.4141 32.0605C12.4915 31.2637 12.4307 30.5166 12.2314 29.8193C12.0322 29.111 11.667 28.541 11.1357 28.1094C10.6156 27.6777 9.91276 27.4398 9.02734 27.3955L5.3584 27.3789L5.70703 25.6357L10.5381 25.6523L10.7705 26.2998C11.6781 26.4769 12.3975 26.8643 12.9287 27.4619C13.471 28.0485 13.8473 28.7513 14.0576 29.5703C14.2679 30.3783 14.3398 31.2028 14.2734 32.0439C14.1517 33.4163 13.7754 34.6283 13.1445 35.6797C12.5137 36.7311 11.6615 37.5501 10.5879 38.1367C9.52539 38.7233 8.29134 39.0111 6.88574 39Z" fill="black"/>
<path d="M156.536 14.8281L158.197 25.6523L163.625 14.8281H168.971L159.84 30.4502L158.379 39H153.565L155.142 29.9854L151.556 14.8281H156.536Z" fill="black"/>
<path d="M139.435 39H135.035L135.766 34.9824L139.667 35.0156C140.984 35.0267 142.03 34.7555 142.805 34.2021C143.579 33.6488 144.16 32.9072 144.548 31.9775C144.946 31.0368 145.229 29.9743 145.395 28.79L145.942 25.0049C146.031 24.3076 146.092 23.6048 146.125 22.8965C146.158 22.1882 146.097 21.5352 145.942 20.9375C145.787 20.3398 145.478 19.8584 145.013 19.4932C144.559 19.1169 143.884 18.9121 142.987 18.8789L138.438 18.8623L139.152 14.8281L143.203 14.8447C144.653 14.8779 145.887 15.1768 146.905 15.7412C147.924 16.3057 148.737 17.0638 149.346 18.0156C149.965 18.9674 150.381 20.0465 150.591 21.2529C150.801 22.4593 150.823 23.7266 150.657 25.0547L150.109 28.8066C149.877 30.2344 149.484 31.568 148.931 32.8076C148.377 34.0472 147.652 35.1318 146.756 36.0615C145.87 36.9912 144.819 37.7161 143.602 38.2363C142.384 38.7565 140.995 39.0111 139.435 39ZM141.991 14.8281L137.808 39H133.06L137.243 14.8281H141.991Z" fill="black"/>
<path d="M122.848 39H118.448L119.179 34.9824L123.08 35.0156C124.397 35.0267 125.443 34.7555 126.218 34.2021C126.993 33.6488 127.574 32.9072 127.961 31.9775C128.359 31.0368 128.642 29.9743 128.808 28.79L129.355 25.0049C129.444 24.3076 129.505 23.6048 129.538 22.8965C129.571 22.1882 129.51 21.5352 129.355 20.9375C129.201 20.3398 128.891 19.8584 128.426 19.4932C127.972 19.1169 127.297 18.9121 126.4 18.8789L121.852 18.8623L122.565 14.8281L126.616 14.8447C128.066 14.8779 129.3 15.1768 130.318 15.7412C131.337 16.3057 132.15 17.0638 132.759 18.0156C133.379 18.9674 133.794 20.0465 134.004 21.2529C134.214 22.4593 134.236 23.7266 134.07 25.0547L133.522 28.8066C133.29 30.2344 132.897 31.568 132.344 32.8076C131.79 34.0472 131.065 35.1318 130.169 36.0615C129.284 36.9912 128.232 37.7161 127.015 38.2363C125.797 38.7565 124.408 39.0111 122.848 39ZM125.404 14.8281L121.221 39H116.473L120.656 14.8281H125.404Z" fill="black"/>
<path d="M114.379 14.8281H119.11L116.288 31.4131C116.056 33.04 115.569 34.4567 114.827 35.6631C114.086 36.8584 113.095 37.777 111.855 38.4189C110.616 39.0609 109.149 39.3708 107.456 39.3486C105.862 39.3154 104.545 38.9668 103.505 38.3027C102.464 37.6276 101.712 36.7035 101.247 35.5303C100.793 34.346 100.66 32.9792 100.849 31.4297L103.671 14.8281H108.386L105.613 31.4463C105.536 32.1214 105.525 32.7467 105.58 33.3223C105.646 33.8867 105.846 34.3571 106.178 34.7334C106.521 35.0986 107.085 35.2923 107.871 35.3145C108.701 35.3477 109.371 35.1982 109.88 34.8662C110.389 34.5342 110.771 34.0693 111.025 33.4717C111.28 32.863 111.468 32.1878 111.59 31.4463L114.379 14.8281Z" fill="black"/>
<path d="M93.1104 28.458H88.1133L88.7109 24.9385L92.5957 24.9717C93.2487 24.9606 93.8187 24.8333 94.3057 24.5898C94.8037 24.3353 95.2021 23.9756 95.501 23.5107C95.8109 23.0459 96.0101 22.487 96.0986 21.834C96.1761 21.2695 96.1761 20.777 96.0986 20.3564C96.0212 19.9248 95.8275 19.5762 95.5176 19.3105C95.2077 19.0449 94.7484 18.901 94.1396 18.8789L91.4004 18.8623L87.9141 39H83.166L87.3496 14.8281L94.3389 14.8447C95.3571 14.8669 96.2812 15.0163 97.1113 15.293C97.9525 15.5586 98.6719 15.9626 99.2695 16.5049C99.8672 17.0472 100.31 17.7168 100.598 18.5137C100.896 19.3105 101.013 20.2513 100.946 21.3359C100.858 22.5423 100.526 23.5716 99.9502 24.4238C99.3857 25.265 98.6331 25.918 97.6924 26.3828C96.7627 26.8366 95.7113 27.0967 94.5381 27.1631L93.1104 28.458ZM91.168 39H84.8594L87.3828 34.999L91.3838 35.0156C92.0479 34.9935 92.6123 34.8385 93.0771 34.5508C93.5531 34.263 93.9294 33.8757 94.2061 33.3887C94.4938 32.9017 94.6764 32.3428 94.7539 31.7119C94.8203 31.236 94.8369 30.7601 94.8037 30.2842C94.7816 29.7972 94.6488 29.3877 94.4053 29.0557C94.1618 28.7126 93.7467 28.5189 93.1602 28.4746L88.8604 28.458L89.5078 24.9385L94.3057 24.9551L95.1191 26.333C96.1706 26.3773 97.0228 26.6429 97.6758 27.1299C98.3398 27.6058 98.8158 28.2422 99.1035 29.0391C99.3913 29.8359 99.4964 30.7435 99.4189 31.7617C99.3193 33.3333 98.9043 34.6615 98.1738 35.7461C97.4544 36.8197 96.4915 37.6387 95.2852 38.2031C94.0788 38.7565 92.7064 39.0221 91.168 39Z" fill="black"/>
<path fill-rule="evenodd" clip-rule="evenodd" d="M21.7432 10.4262L21.7354 10.4768L21.7261 10.4754C21.486 12.3396 21.2839 13.766 21.0885 15.0002H21.0939L21.0226 15.4108C20.9115 16.0936 20.8015 16.7226 20.6867 17.3439L17.2024 37.3957H26.8713L26.5392 39.1721H16.8937H16.3625H15.0012L18.9676 16.4353C19.1345 15.3129 19.3425 14.1244 19.5488 12.9458C19.7367 11.8721 19.9232 10.8067 20.0758 9.80694L20.0818 9.76785L15.032 5.31404L19.5388 10.6192C18.3281 11.1609 16.9565 11.2462 15.6824 10.859C14.3993 10.4744 13.2297 9.78655 12.2754 8.85539C11.3211 7.92424 10.6111 6.778 10.2072 5.51655C10.046 5.02286 9.93237 4.51541 9.868 4.001C9.85888 3.9313 9.84658 3.84317 9.83232 3.74104C9.71743 2.91772 9.47549 1.18406 9.74662 0.854879C10.1875 0.31266 13.301 0.96678 14.0102 1.1221C17.6965 1.93425 21.7738 4.07923 21.2119 8.4954C21.1876 8.67805 21.1387 8.85658 21.0664 9.02622L21.2741 9.22972L21.5459 9.10648C21.5619 8.84894 21.6183 8.59557 21.7131 8.3554C23.6859 3.43918 29.171 3.53986 33.4794 4.81174C34.3091 5.0537 37.9274 6.15435 38.0747 6.97226C38.1652 7.47724 36.8813 9.17611 36.2925 9.95516C36.2268 10.0421 36.1697 10.1176 36.1242 10.1786C35.7599 10.6779 35.3478 11.1414 34.8935 11.5628C32.5175 13.7253 29.3093 14.6923 26.0987 13.9857C24.5522 13.6596 23.1774 12.7877 22.233 11.5341L29.9977 8.58689L21.7432 10.4262Z" fill="black"/>
</svg>
