<svg width="145" height="119" viewBox="0 0 145 119" fill="none" xmlns="http://www.w3.org/2000/svg">
<path d="M35.9318 90.2239L57.1015 81.7344L37.6802 92.8979C40.9053 96.0097 44.6797 97.6426 48.9561 97.9265C57.7749 98.5122 65.9084 94.5781 71.3544 87.7391C72.3822 86.4494 73.28 85.0059 74.0656 83.4973C75.0225 81.6634 78.4425 75.5048 77.9522 74.0317C77.2257 71.8842 67.1547 70.3992 64.8511 70.0857C52.8841 68.441 38.2532 70.4347 35.0045 84.5267C34.8509 85.2189 34.8155 85.917 34.8686 86.6269L34.1953 87.0647L33.5573 86.5973C33.6755 86.1063 33.7404 85.6034 33.7286 85.1006C33.4333 72.949 21.7203 68.8374 11.5903 68.163C9.64105 68.0387 1.09995 67.5536 0.143062 69.1983C-0.512583 70.3223 1.27124 75.9781 1.74378 77.6464C2.13953 79.0189 2.63569 80.3618 3.2618 81.6042C6.59318 88.1473 12.6299 92.7678 19.9896 93.7735C23.5573 94.2645 26.9359 93.5546 30.1196 91.5431L16.0085 79.0662L31.2478 89.017L31.2419 89.1235C31.9566 91.62 32.1811 94.2113 32.0039 96.9681C29.4935 97.3586 26.7942 99.0328 26.6701 101.565C17.9046 95.637 9.40479 108.623 10.2731 117H60.0291C59.1431 107.901 48.9148 101.642 42.3524 105.138C44.8155 98.3052 39.594 96.8557 35.861 97.8792C35.7487 97.7372 35.6188 97.613 35.4652 97.5065C35.1403 95.0277 35.164 92.5489 35.9318 90.2239Z" fill="black"/>
<path d="M121.727 86.011C120.707 86.131 119.977 87.041 120.087 88.061C120.317 90.191 120.597 93.431 120.597 96.231C120.577 98.071 120.457 99.701 120.117 100.611C119.757 101.571 120.257 102.641 121.217 102.991C122.177 103.351 123.247 102.851 123.597 101.891C124.087 100.561 124.277 98.491 124.287 96.251C124.307 93.231 124.027 89.851 123.777 87.651C123.657 86.631 122.747 85.901 121.727 86.011Z" fill="black"/>
<path fill-rule="evenodd" clip-rule="evenodd" d="M78.7761 0.610335L78.101 0.402344L77.4169 0.578399L72.6169 1.81369L72.5293 1.83625L72.4435 1.86507C61.6355 5.49772 53.796 12.1997 48.41 18.2278C44.5117 18.8726 41.4835 19.4006 39.2568 19.9009C38.0336 20.1756 36.9769 20.4583 36.115 20.7725C35.4117 21.029 34.6292 21.378 33.9866 21.9121C31.831 23.2509 30.2006 25.459 28.9743 27.7512C27.6809 30.1688 26.6974 32.9445 25.9897 35.5849C25.2803 38.2319 24.8256 40.8274 24.623 42.9244C24.5221 43.9688 24.4792 44.9364 24.5096 45.7505C24.5248 46.1563 24.5597 46.5671 24.6286 46.9527C24.6899 47.2958 24.8099 47.8128 25.0968 48.3077C25.6063 49.1865 26.3441 50.0235 27.2406 50.8142C26.3987 53.3271 25.337 57.1203 24.4371 61.0834C23.389 65.699 22.5 70.8033 22.5 74.4995H27.5C27.5 71.3957 28.2776 66.7501 29.3129 62.1906C30.0366 59.0037 30.8563 55.986 31.551 53.7423C32.8945 54.4785 34.4191 55.2 36.1132 55.8937C41.6896 58.1768 49.2684 60.2254 58.6699 61.4776C68.1707 62.743 83.5988 62.4367 97.121 61.474C103.911 60.9906 110.292 60.3365 115.295 59.6144C117.793 59.2538 119.98 58.8716 121.717 58.4775C123.333 58.111 124.905 57.6641 125.897 57.0504L125.983 56.9971C128.297 63.3138 131.702 75.9511 131.002 95.9118L130.934 97.8397L132.782 98.3941C134.028 98.7678 135.962 99.8046 137.382 101.617C138.52 103.068 139.391 105.088 139.24 107.885C137.677 108.017 135.788 107.796 133.246 107.5L133.246 107.5H133.246L133.064 107.479C129.721 107.089 125.639 106.666 121.032 107.544L120.893 107.57L120.758 107.612C108.687 111.364 87.4262 116.953 51.911 111.034L51.089 115.965C87.44 122.024 109.484 116.344 122.103 112.43C125.843 111.741 129.219 112.064 132.486 112.445C132.71 112.471 132.936 112.498 133.165 112.525C136.102 112.875 139.332 113.26 142.218 112.394L143.686 111.954L143.96 110.447C144.89 105.329 143.532 101.358 141.318 98.5322C139.751 96.5339 137.801 95.1613 136.051 94.3221C136.56 73.037 132.532 59.8894 130.093 53.7435C130.392 53.408 130.668 53.0572 130.917 52.6879C132.169 50.8344 132.595 48.7728 132.483 46.3835C132.375 44.0839 131.762 41.3463 130.833 37.9997C130.116 35.419 129.173 32.3473 128.051 28.6897L128.048 28.6814C127.706 27.567 127.347 26.3983 126.973 25.1724L126.863 24.8129L126.653 24.5016C126.053 23.6145 125.159 23.1685 124.446 22.9008C123.7 22.6206 122.757 22.3954 121.628 22.1797C119.425 21.7589 116.013 21.2859 110.839 20.5898C106.855 16.1095 102.158 12.4351 97.5777 9.5095C90.1385 4.75793 82.7999 1.85005 78.7761 0.610335ZM115.138 26.2237C115.637 26.9984 116.113 27.792 116.562 28.6049C117.585 28.0363 118.502 27.4509 119.351 26.8541C118.232 26.6686 116.849 26.4637 115.138 26.2237ZM112.007 30.7038C107.973 23.5747 101.48 17.9345 94.8863 13.7233C88.2815 9.50475 81.7579 6.83585 77.968 5.5995L73.9519 6.63306C59.506 11.5199 50.8306 22.5268 46.3588 28.9417C50.1725 30.7317 54.7055 32.1359 59.5871 33.1717C69.2016 35.2117 79.5262 35.6909 86.7142 35.2133C99.027 34.3952 106.737 32.7075 112.007 30.7038ZM41.9736 26.4892C42.473 25.7655 43.0332 24.9695 43.6566 24.1187C42.379 24.353 41.2836 24.5702 40.3527 24.7793C40.1809 24.8179 40.0165 24.8558 39.8591 24.8931C40.5099 25.4481 41.2164 25.98 41.9736 26.4892ZM113.819 35.3639C117.959 33.786 120.881 31.9836 123.277 30.1789L123.287 30.2086C124.403 33.8469 125.318 36.8276 126.015 39.3373C126.934 42.6467 127.409 44.9204 127.488 46.6174C127.563 48.2247 127.276 49.1453 126.773 49.8896C126.203 50.7337 125.183 51.613 123.267 52.798C123.268 52.7972 123.253 52.8068 123.215 52.8254C123.179 52.8438 123.127 52.8676 123.059 52.8964C122.921 52.9546 122.736 53.0234 122.498 53.1007C122.019 53.256 121.391 53.4245 120.611 53.6014C119.054 53.9547 117.01 54.315 114.58 54.6657C109.729 55.366 103.473 56.0092 96.7659 56.4867C83.2952 57.4457 68.2955 57.7155 59.3301 56.5214C50.2654 55.3141 43.1147 53.3575 38.0078 51.2665C35.4524 50.2202 33.4497 49.157 31.988 48.1656C30.6476 47.2566 29.8957 46.4977 29.5367 45.979C29.525 45.885 29.5131 45.7484 29.5061 45.5633C29.4867 45.0439 29.5122 44.3129 29.5999 43.4052C29.7745 41.5977 30.1774 39.2742 30.8193 36.8793C31.4629 34.4778 32.3244 32.0885 33.383 30.1098C33.9759 29.0017 34.5909 28.097 35.2083 27.3991C40.6792 32.8758 49.6097 36.166 58.5493 38.0628C68.6405 40.2039 79.4273 40.7085 87.0457 40.2023C99.6627 39.364 107.917 37.6135 113.819 35.3639ZM29.5594 46.116L29.5604 46.1192C29.5605 46.1195 29.5605 46.1196 29.5606 46.1195C29.5608 46.1192 29.5593 46.112 29.5555 46.0988C29.5572 46.107 29.5586 46.1126 29.5594 46.116Z" fill="black"/>
</svg>
